<svg xmlns="http://www.w3.org/2000/svg" width="750" viewBox="0 0 750 750" height="750" version="1.0"><defs><clipPath id="a"><path d="M 255.574219 622 L 478 622 L 478 741.363281 L 255.574219 741.363281 Z M 255.574219 622"/></clipPath><clipPath id="b"><path d="M 511 8.183594 L 733 8.183594 L 733 94 L 511 94 Z M 511 8.183594"/></clipPath></defs><path fill="#6FC83D" d="M 443.199219 110.808594 L 443.1875 93.742188 L 460.238281 93.722656 L 460.25 110.808594 L 443.199219 110.808594"/><path fill="#6FC83D" d="M 443.199219 93.742188 L 460.238281 93.742188 L 460.238281 110.789062 L 443.199219 110.789062 L 443.199219 93.742188"/><path fill="#6FC83D" d="M 511.402344 127.828125 L 528.421875 127.8125 L 528.402344 110.789062 L 545.460938 110.777344 L 545.441406 76.703125 L 528.421875 76.722656 L 528.441406 93.742188 L 511.402344 93.753906 Z M 494.332031 144.875 L 494.3125 76.703125 L 511.382812 76.691406 L 511.371094 59.667969 L 528.421875 59.65625 L 528.402344 42.621094 L 545.460938 42.605469 L 545.441406 25.582031 L 562.511719 25.570312 L 562.53125 93.742188 L 613.644531 93.722656 L 613.632812 76.703125 L 630.683594 76.691406 L 630.695312 93.742188 L 647.734375 93.722656 L 647.722656 59.667969 L 681.816406 59.65625 L 681.828125 93.742188 L 664.773438 93.753906 L 664.792969 110.789062 L 630.683594 110.808594 L 630.695312 127.828125 L 545.460938 127.839844 L 545.480469 144.875 L 494.332031 144.875"/><path fill="#6FC83D" d="M 545.460938 110.789062 L 528.421875 110.789062 L 528.421875 127.828125 L 511.382812 127.828125 L 511.382812 93.742188 L 528.421875 93.742188 L 528.421875 76.703125 L 545.460938 76.703125 Z M 647.734375 59.667969 L 647.734375 93.742188 L 630.683594 93.742188 L 630.683594 76.703125 L 613.644531 76.703125 L 613.644531 93.742188 L 562.511719 93.742188 L 562.511719 25.582031 L 545.460938 25.582031 L 545.460938 42.621094 L 528.421875 42.621094 L 528.421875 59.667969 L 511.382812 59.667969 L 511.382812 76.703125 L 494.332031 76.703125 L 494.332031 144.863281 L 545.460938 144.863281 L 545.460938 127.828125 L 630.683594 127.828125 L 630.683594 110.789062 L 664.773438 110.789062 L 664.773438 93.742188 L 681.816406 93.742188 L 681.816406 59.667969 L 647.734375 59.667969"/><path fill="#6FC83D" d="M 511.402344 178.96875 L 528.421875 178.949219 L 528.402344 161.929688 L 511.402344 161.941406 Z M 477.292969 196.035156 L 477.308594 230.089844 L 494.332031 230.070312 L 494.3125 196.015625 Z M 392.082031 315.296875 L 426.160156 315.277344 L 426.148438 298.257812 L 392.082031 298.273438 Z M 375 366.449219 L 374.980469 349.382812 L 357.960938 349.394531 L 357.945312 298.257812 L 340.925781 298.273438 L 340.90625 247.136719 L 375 247.117188 L 375.015625 264.175781 L 409.109375 264.15625 L 409.089844 247.136719 L 426.160156 247.117188 L 426.148438 213.050781 L 443.199219 213.035156 L 443.1875 161.929688 L 494.332031 161.910156 L 494.3125 144.863281 L 545.460938 144.84375 L 545.441406 127.828125 L 596.609375 127.8125 L 596.625 144.863281 L 613.644531 144.84375 L 613.664062 161.929688 L 596.609375 161.941406 L 596.625 178.96875 L 579.554688 178.980469 L 579.566406 230.089844 L 545.460938 230.101562 L 545.441406 196.015625 L 528.421875 196.035156 L 528.441406 213.050781 L 511.382812 213.066406 L 511.402344 230.089844 L 494.332031 230.101562 L 494.347656 247.136719 L 443.199219 247.148438 L 443.210938 315.296875 L 460.238281 315.277344 L 460.25 332.34375 L 443.199219 332.363281 L 443.210938 366.449219 L 375 366.449219"/><path fill="#6FC83D" d="M 528.421875 178.96875 L 511.382812 178.96875 L 511.382812 161.929688 L 528.421875 161.929688 Z M 426.160156 315.296875 L 392.070312 315.296875 L 392.070312 298.257812 L 426.160156 298.257812 Z M 596.609375 144.863281 L 596.609375 127.828125 L 545.460938 127.828125 L 545.460938 144.863281 L 494.332031 144.863281 L 494.332031 161.929688 L 443.199219 161.929688 L 443.199219 213.050781 L 426.160156 213.050781 L 426.160156 247.136719 L 409.109375 247.136719 L 409.109375 264.175781 L 375 264.175781 L 375 247.136719 L 340.925781 247.136719 L 340.925781 298.257812 L 357.960938 298.257812 L 357.960938 349.382812 L 375 349.382812 L 375 366.429688 L 443.199219 366.429688 L 443.199219 332.34375 L 460.238281 332.34375 L 460.238281 315.296875 L 443.199219 315.296875 L 443.199219 247.136719 L 494.332031 247.136719 L 494.332031 230.089844 L 477.292969 230.089844 L 477.292969 196.015625 L 494.332031 196.015625 L 494.332031 230.089844 L 511.382812 230.089844 L 511.382812 213.050781 L 528.421875 213.050781 L 528.421875 196.015625 L 545.460938 196.015625 L 545.460938 230.089844 L 579.554688 230.089844 L 579.554688 178.96875 L 596.609375 178.96875 L 596.609375 161.929688 L 613.644531 161.929688 L 613.644531 144.863281 L 596.609375 144.863281"/><path fill="#6FC83D" d="M 630.683594 349.394531 L 630.671875 332.34375 L 647.734375 332.328125 L 647.753906 349.394531 L 630.683594 349.394531"/><path fill="#6FC83D" d="M 647.734375 332.34375 L 647.734375 349.382812 L 630.683594 349.382812 L 630.683594 332.34375 L 647.734375 332.34375"/><path fill="#6FC83D" d="M 528.421875 247.148438 L 528.402344 230.089844 L 545.460938 230.070312 L 545.480469 247.148438 L 528.421875 247.148438"/><path fill="#6FC83D" d="M 545.460938 230.089844 L 545.460938 247.136719 L 528.421875 247.136719 L 528.421875 230.089844 L 545.460938 230.089844"/><path fill="#6FC83D" d="M 477.292969 315.308594 L 477.277344 298.257812 L 494.332031 298.242188 L 494.347656 315.308594 L 477.292969 315.308594"/><path fill="#6FC83D" d="M 494.332031 298.257812 L 494.332031 315.296875 L 477.292969 315.296875 L 477.292969 298.257812 L 494.332031 298.257812"/><path fill="#6FC83D" d="M 630.683594 161.941406 L 630.671875 127.828125 L 698.867188 127.8125 L 698.886719 144.863281 L 664.773438 144.875 L 664.792969 161.941406 L 630.683594 161.941406"/><path fill="#6FC83D" d="M 630.683594 127.828125 L 698.867188 127.828125 L 698.867188 144.863281 L 664.773438 144.863281 L 664.773438 161.929688 L 630.683594 161.929688 L 630.683594 127.828125"/><path fill="#6FC83D" d="M 698.867188 127.839844 L 698.855469 76.703125 L 715.90625 76.691406 L 715.925781 127.839844 L 698.867188 127.839844"/><path fill="#6FC83D" d="M 715.90625 76.703125 L 715.90625 127.828125 L 698.867188 127.828125 L 698.867188 76.703125 L 715.90625 76.703125"/><path fill="#6FC83D" d="M 596.609375 383.484375 L 596.59375 366.429688 L 613.644531 366.417969 L 613.664062 383.484375 L 596.609375 383.484375"/><path fill="#6FC83D" d="M 596.609375 366.429688 L 613.644531 366.429688 L 613.644531 383.464844 L 596.609375 383.464844 L 596.609375 366.429688"/><path fill="#6FC83D" d="M 511.402344 332.34375 L 528.421875 332.328125 L 528.402344 315.296875 L 511.402344 315.308594 Z M 477.308594 366.429688 L 511.382812 366.417969 L 511.371094 349.382812 L 494.332031 349.394531 L 494.3125 332.34375 L 477.308594 332.363281 Z M 494.332031 400.515625 L 494.3125 383.464844 L 460.238281 383.484375 L 460.222656 315.296875 L 494.332031 315.277344 L 494.3125 264.175781 L 511.382812 264.15625 L 511.371094 247.136719 L 579.554688 247.117188 L 579.539062 230.089844 L 596.609375 230.070312 L 596.59375 196.015625 L 613.644531 195.996094 L 613.664062 230.089844 L 647.734375 230.070312 L 647.722656 213.050781 L 681.816406 213.035156 L 681.828125 264.175781 L 545.460938 264.1875 L 545.480469 315.296875 L 579.554688 315.277344 L 579.566406 332.34375 L 562.511719 332.363281 L 562.53125 349.382812 L 579.554688 349.363281 L 579.566406 366.429688 L 528.421875 366.449219 L 528.441406 383.464844 L 562.511719 383.449219 L 562.53125 400.515625 L 494.332031 400.515625"/><path fill="#6FC83D" d="M 528.421875 332.34375 L 511.382812 332.34375 L 511.382812 315.296875 L 528.421875 315.296875 Z M 511.382812 366.429688 L 477.292969 366.429688 L 477.292969 332.34375 L 494.332031 332.34375 L 494.332031 349.382812 L 511.382812 349.382812 Z M 681.816406 264.175781 L 681.816406 213.050781 L 647.734375 213.050781 L 647.734375 230.089844 L 613.644531 230.089844 L 613.644531 196.015625 L 596.609375 196.015625 L 596.609375 230.089844 L 579.554688 230.089844 L 579.554688 247.136719 L 511.382812 247.136719 L 511.382812 264.175781 L 494.332031 264.175781 L 494.332031 315.296875 L 460.238281 315.296875 L 460.238281 383.464844 L 494.332031 383.464844 L 494.332031 400.503906 L 562.511719 400.503906 L 562.511719 383.464844 L 528.421875 383.464844 L 528.421875 366.429688 L 579.554688 366.429688 L 579.554688 349.382812 L 562.511719 349.382812 L 562.511719 332.34375 L 579.554688 332.34375 L 579.554688 315.296875 L 545.460938 315.296875 L 545.460938 264.175781 L 681.816406 264.175781"/><path fill="#6FC83D" d="M 443.199219 315.308594 L 443.1875 298.257812 L 460.238281 298.242188 L 460.25 315.308594 L 443.199219 315.308594"/><path fill="#6FC83D" d="M 460.238281 298.257812 L 460.238281 315.296875 L 443.199219 315.296875 L 443.199219 298.257812 L 460.238281 298.257812"/><path fill="#6FC83D" d="M 443.199219 298.273438 L 443.1875 281.222656 L 460.238281 281.210938 L 460.25 298.273438 L 443.199219 298.273438"/><path fill="#6FC83D" d="M 460.238281 281.222656 L 460.238281 298.257812 L 443.199219 298.257812 L 443.199219 281.222656 L 460.238281 281.222656"/><path fill="#D93B3E" d="M 238.644531 605.035156 L 238.632812 553.882812 L 477.292969 553.867188 L 477.308594 587.984375 L 494.332031 587.964844 L 494.3125 553.882812 L 511.382812 553.867188 L 511.402344 605.035156 L 238.644531 605.035156"/><path fill="#D93B3E" d="M 511.382812 553.882812 L 511.382812 605.023438 L 238.644531 605.023438 L 238.644531 553.882812 L 477.292969 553.882812 L 477.292969 587.984375 L 494.332031 587.984375 L 494.332031 553.882812 L 511.382812 553.882812"/><g clip-path="url(#a)" fill="#D93B3E"><path d="M 306.828125 741.363281 L 306.816406 724.3125 L 289.777344 724.332031 L 289.765625 707.265625 L 272.738281 707.277344 L 272.726562 690.230469 L 255.699219 690.242188 L 255.683594 622.058594 L 477.292969 622.039062 L 477.308594 690.230469 L 460.238281 690.242188 L 460.25 707.265625 L 443.199219 707.277344 L 443.210938 724.3125 L 426.160156 724.332031 L 426.179688 741.363281 L 306.828125 741.363281"/><path d="M 477.292969 622.058594 L 477.292969 690.230469 L 460.238281 690.230469 L 460.238281 707.265625 L 443.199219 707.265625 L 443.199219 724.3125 L 426.160156 724.3125 L 426.160156 741.351562 L 306.828125 741.351562 L 306.828125 724.3125 L 289.777344 724.3125 L 289.777344 707.265625 L 272.738281 707.265625 L 272.738281 690.230469 L 255.699219 690.230469 L 255.699219 622.058594 L 477.292969 622.058594"/></g><path fill="#ED5F64" d="M 306.828125 707.277344 L 306.816406 690.230469 L 340.925781 690.210938 L 340.9375 707.277344 L 306.828125 707.277344"/><path fill="#ED5F64" d="M 340.925781 690.230469 L 340.925781 707.265625 L 306.828125 707.265625 L 306.828125 690.230469 L 340.925781 690.230469"/><path fill="#ED5F64" d="M 375 707.277344 L 374.980469 690.230469 L 409.109375 690.210938 L 409.121094 707.277344 L 375 707.277344"/><path fill="#ED5F64" d="M 409.109375 690.230469 L 409.109375 707.265625 L 375 707.265625 L 375 690.230469 L 409.109375 690.230469"/><path fill="#ED5F64" d="M 409.109375 690.242188 L 409.089844 673.191406 L 426.160156 673.179688 L 426.179688 690.242188 L 409.109375 690.242188"/><path fill="#ED5F64" d="M 409.109375 673.191406 L 426.160156 673.191406 L 426.160156 690.230469 L 409.109375 690.230469 L 409.109375 673.191406"/><path fill="#ED5F64" d="M 443.199219 656.15625 L 443.1875 639.105469 L 460.238281 639.09375 L 460.25 656.15625 L 443.199219 656.15625"/><path fill="#ED5F64" d="M 443.199219 639.105469 L 460.238281 639.105469 L 460.238281 656.144531 L 443.199219 656.144531 L 443.199219 639.105469"/><path fill="#ED5F64" d="M 426.160156 673.203125 L 426.148438 656.144531 L 443.199219 656.125 L 443.210938 673.203125 L 426.160156 673.203125"/><path fill="#ED5F64" d="M 426.160156 656.144531 L 443.199219 656.144531 L 443.199219 673.191406 L 426.160156 673.191406 L 426.160156 656.144531"/><path fill="#ED5F64" d="M 221.605469 622.070312 L 221.59375 605.023438 L 511.382812 605.003906 L 511.402344 622.070312 L 221.605469 622.070312"/><path fill="#ED5F64" d="M 511.382812 605.023438 L 511.382812 622.058594 L 221.605469 622.058594 L 221.605469 605.023438 L 511.382812 605.023438"/><path fill="#ED5F64" d="M 477.292969 588.003906 L 477.277344 553.882812 L 494.332031 553.867188 L 494.347656 588.003906 L 477.292969 588.003906"/><path fill="#ED5F64" d="M 494.332031 587.984375 L 477.292969 587.984375 L 477.292969 553.882812 L 494.332031 553.882812 L 494.332031 587.984375"/><path fill="#D93B3E" d="M 221.613281 605.027344 L 221.59375 587.980469 L 238.644531 587.960938 L 238.664062 605.027344 L 221.613281 605.027344"/><path fill="#D93B3E" d="M 238.644531 587.980469 L 238.644531 605.015625 L 221.613281 605.015625 L 221.613281 587.980469 L 238.644531 587.980469"/><path fill="#D93B3E" d="M 221.613281 587.992188 L 221.59375 570.925781 L 238.644531 570.910156 L 238.664062 587.992188 L 221.613281 587.992188"/><path fill="#D93B3E" d="M 238.644531 570.925781 L 238.644531 587.980469 L 221.613281 587.980469 L 221.613281 570.925781 L 238.644531 570.925781"/><path fill="#D93B3E" d="M 221.613281 570.941406 L 221.59375 553.894531 L 238.644531 553.875 L 238.664062 570.941406 L 221.613281 570.941406"/><path fill="#D93B3E" d="M 238.644531 553.894531 L 238.644531 570.925781 L 221.613281 570.925781 L 221.613281 553.894531 L 238.644531 553.894531"/><path fill="#6FC83D" d="M 221.605469 349.394531 L 221.59375 332.34375 L 238.644531 332.328125 L 238.65625 349.394531 L 221.605469 349.394531"/><path fill="#6FC83D" d="M 238.644531 332.34375 L 238.644531 349.382812 L 221.605469 349.382812 L 221.605469 332.34375 L 238.644531 332.34375"/><path fill="#6FC83D" d="M 221.613281 144.882812 L 221.59375 127.832031 L 238.644531 127.820312 L 238.664062 144.882812 L 221.613281 144.882812"/><path fill="#6FC83D" d="M 238.644531 127.832031 L 238.644531 144.871094 L 221.613281 144.871094 L 221.613281 127.832031 L 238.644531 127.832031"/><path fill="#6FC83D" d="M 204.554688 264.1875 L 204.535156 247.136719 L 221.605469 247.117188 L 221.625 264.1875 L 204.554688 264.1875"/><path fill="#6FC83D" d="M 221.605469 247.136719 L 221.605469 264.175781 L 204.554688 264.175781 L 204.554688 247.136719 L 221.605469 247.136719"/><path fill="#6FC83D" d="M 153.421875 349.394531 L 153.40625 332.34375 L 170.476562 332.328125 L 170.492188 349.394531 L 153.421875 349.394531"/><path fill="#6FC83D" d="M 170.476562 332.34375 L 170.476562 349.382812 L 153.421875 349.382812 L 153.421875 332.34375 L 170.476562 332.34375"/><path fill="#6FC83D" d="M 153.421875 264.1875 L 153.40625 247.136719 L 170.476562 247.117188 L 170.492188 264.1875 L 153.421875 264.1875"/><path fill="#6FC83D" d="M 170.476562 247.136719 L 170.476562 264.175781 L 153.421875 264.175781 L 153.421875 247.136719 L 170.476562 247.136719"/><path fill="#6FC83D" d="M 119.34375 213.066406 L 119.332031 196.015625 L 136.382812 195.996094 L 136.402344 213.066406 L 119.34375 213.066406"/><path fill="#6FC83D" d="M 136.382812 196.015625 L 136.382812 213.050781 L 119.34375 213.050781 L 119.34375 196.015625 L 136.382812 196.015625"/><path fill="#6FC83D" d="M 51.160156 127.839844 L 51.144531 110.789062 L 68.203125 110.777344 L 68.214844 127.839844 L 51.160156 127.839844"/><path fill="#6FC83D" d="M 68.203125 110.789062 L 68.203125 127.828125 L 51.160156 127.828125 L 51.160156 110.789062 L 68.203125 110.789062"/><path fill="#6FC83D" d="M 102.292969 315.308594 L 102.28125 298.257812 L 85.253906 298.273438 L 85.242188 281.222656 L 119.34375 281.210938 L 119.363281 298.257812 L 136.382812 298.242188 L 136.402344 315.308594 L 102.292969 315.308594"/><path fill="#6FC83D" d="M 119.34375 281.222656 L 119.34375 298.257812 L 136.382812 298.257812 L 136.382812 315.296875 L 102.292969 315.296875 L 102.292969 298.257812 L 85.253906 298.257812 L 85.253906 281.222656 L 119.34375 281.222656"/><path fill="#6FC83D" d="M 102.292969 383.484375 L 102.28125 366.429688 L 119.34375 366.417969 L 119.363281 383.484375 L 102.292969 383.484375"/><path fill="#6FC83D" d="M 119.34375 366.429688 L 119.34375 383.464844 L 102.292969 383.464844 L 102.292969 366.429688 L 119.34375 366.429688"/><path fill="#6FC83D" d="M 170.476562 400.515625 L 170.464844 383.464844 L 187.515625 383.449219 L 187.527344 400.515625 L 170.476562 400.515625"/><path fill="#6FC83D" d="M 170.476562 383.464844 L 187.515625 383.464844 L 187.515625 400.503906 L 170.476562 400.503906 L 170.476562 383.464844"/><path fill="#6FC83D" d="M 85.253906 213.066406 L 85.242188 196.015625 L 102.292969 195.996094 L 102.304688 213.066406 L 85.253906 213.066406"/><path fill="#6FC83D" d="M 102.292969 196.015625 L 102.292969 213.050781 L 85.253906 213.050781 L 85.253906 196.015625 L 102.292969 196.015625"/><path fill="#6FC83D" d="M 119.34375 400.515625 L 119.332031 383.464844 L 153.421875 383.449219 L 153.4375 400.515625 L 119.34375 400.515625"/><path fill="#6FC83D" d="M 153.421875 383.464844 L 153.421875 400.503906 L 119.34375 400.503906 L 119.34375 383.464844 L 153.421875 383.464844"/><path fill="#6FC83D" d="M 187.515625 383.484375 L 187.503906 349.382812 L 170.476562 349.394531 L 170.464844 332.34375 L 153.421875 332.363281 L 153.40625 281.222656 L 136.382812 281.234375 L 136.371094 230.089844 L 102.292969 230.101562 L 102.28125 213.050781 L 136.382812 213.035156 L 136.371094 196.015625 L 102.292969 196.035156 L 102.28125 161.929688 L 85.253906 161.941406 L 85.242188 144.863281 L 68.203125 144.875 L 68.214844 161.929688 L 34.121094 161.941406 L 34.109375 144.863281 L 51.160156 144.84375 L 51.144531 127.828125 L 68.203125 127.8125 L 68.183594 110.789062 L 51.160156 110.808594 L 51.144531 93.742188 L 136.382812 93.722656 L 136.402344 110.789062 L 119.34375 110.808594 L 119.363281 144.863281 L 136.382812 144.84375 L 136.402344 161.929688 L 153.421875 161.910156 L 153.4375 178.96875 L 170.476562 178.949219 L 170.492188 247.136719 L 153.421875 247.148438 L 153.4375 264.175781 L 170.476562 264.15625 L 170.492188 298.257812 L 187.515625 298.242188 L 187.527344 332.34375 L 204.554688 332.328125 L 204.566406 366.429688 L 221.605469 366.417969 L 221.625 383.484375 L 187.515625 383.484375"/><path fill="#6FC83D" d="M 221.605469 366.429688 L 221.605469 383.464844 L 187.515625 383.464844 L 187.515625 349.382812 L 170.476562 349.382812 L 170.476562 332.34375 L 153.421875 332.34375 L 153.421875 281.222656 L 136.382812 281.222656 L 136.382812 230.089844 L 102.292969 230.089844 L 102.292969 213.050781 L 136.382812 213.050781 L 136.382812 196.015625 L 102.292969 196.015625 L 102.292969 161.929688 L 85.253906 161.929688 L 85.253906 144.863281 L 68.203125 144.863281 L 68.203125 161.929688 L 34.121094 161.929688 L 34.121094 144.863281 L 51.160156 144.863281 L 51.160156 127.828125 L 68.203125 127.828125 L 68.203125 110.789062 L 51.160156 110.789062 L 51.160156 93.742188 L 136.382812 93.742188 L 136.382812 110.789062 L 119.34375 110.789062 L 119.34375 144.863281 L 136.382812 144.863281 L 136.382812 161.929688 L 153.421875 161.929688 L 153.421875 178.96875 L 170.476562 178.96875 L 170.476562 247.136719 L 153.421875 247.136719 L 153.421875 264.175781 L 170.476562 264.175781 L 170.476562 298.257812 L 187.515625 298.257812 L 187.515625 332.34375 L 204.554688 332.34375 L 204.554688 366.429688 L 221.605469 366.429688"/><path fill="#6FC83D" d="M 238.644531 366.449219 L 238.632812 332.34375 L 221.605469 332.363281 L 221.59375 315.296875 L 204.554688 315.308594 L 204.535156 281.222656 L 187.515625 281.242188 L 187.503906 247.136719 L 170.476562 247.148438 L 170.464844 178.96875 L 153.421875 178.980469 L 153.40625 161.929688 L 136.382812 161.941406 L 136.371094 144.863281 L 119.34375 144.875 L 119.332031 110.789062 L 136.382812 110.777344 L 136.371094 93.742188 L 68.203125 93.753906 L 68.183594 76.703125 L 51.160156 76.722656 L 51.144531 59.667969 L 119.34375 59.65625 L 119.363281 76.703125 L 153.421875 76.691406 L 153.4375 93.742188 L 170.476562 93.722656 L 170.492188 144.863281 L 204.554688 144.84375 L 204.566406 161.929688 L 221.605469 161.910156 L 221.625 213.050781 L 204.554688 213.066406 L 204.535156 196.015625 L 187.515625 196.035156 L 187.527344 230.089844 L 204.554688 230.070312 L 204.566406 264.175781 L 221.605469 264.15625 L 221.59375 247.136719 L 289.777344 247.117188 L 289.765625 230.089844 L 306.828125 230.070312 L 306.847656 247.136719 L 323.867188 247.117188 L 323.886719 264.175781 L 289.777344 264.1875 L 289.789062 298.257812 L 255.699219 298.273438 L 255.714844 315.296875 L 289.777344 315.277344 L 289.789062 332.34375 L 272.738281 332.363281 L 272.753906 366.449219 L 238.644531 366.449219"/><path fill="#6FC83D" d="M 323.867188 247.136719 L 323.867188 264.175781 L 289.777344 264.175781 L 289.777344 298.257812 L 255.699219 298.257812 L 255.699219 315.296875 L 289.777344 315.296875 L 289.777344 332.34375 L 272.738281 332.34375 L 272.738281 366.429688 L 238.644531 366.429688 L 238.644531 332.34375 L 221.605469 332.34375 L 221.605469 315.296875 L 204.554688 315.296875 L 204.554688 281.222656 L 187.515625 281.222656 L 187.515625 247.136719 L 170.476562 247.136719 L 170.476562 178.96875 L 153.421875 178.96875 L 153.421875 161.929688 L 136.382812 161.929688 L 136.382812 144.863281 L 119.34375 144.863281 L 119.34375 110.789062 L 136.382812 110.789062 L 136.382812 93.742188 L 68.203125 93.742188 L 68.203125 76.703125 L 51.160156 76.703125 L 51.160156 59.667969 L 119.34375 59.667969 L 119.34375 76.703125 L 153.421875 76.703125 L 153.421875 93.742188 L 170.476562 93.742188 L 170.476562 144.863281 L 204.554688 144.863281 L 204.554688 161.929688 L 221.605469 161.929688 L 221.605469 213.050781 L 204.554688 213.050781 L 204.554688 196.015625 L 187.515625 196.015625 L 187.515625 230.089844 L 204.554688 230.089844 L 204.554688 264.175781 L 221.605469 264.175781 L 221.605469 247.136719 L 289.777344 247.136719 L 289.777344 230.089844 L 306.828125 230.089844 L 306.828125 247.136719 L 323.867188 247.136719"/><path fill="#9DD759" d="M 153.40625 400.503906 L 153.394531 383.449219 L 119.332031 383.464844 L 119.3125 366.417969 L 170.464844 366.398438 L 170.476562 400.503906 L 153.40625 400.503906"/><path fill="#9DD759" d="M 170.464844 366.417969 L 170.464844 400.484375 L 153.40625 400.484375 L 153.40625 383.449219 L 119.332031 383.449219 L 119.332031 366.417969 L 170.464844 366.417969"/><path fill="#9DD759" d="M 221.59375 196.015625 L 221.574219 144.863281 L 238.632812 144.84375 L 238.644531 196.015625 L 221.59375 196.015625"/><path fill="#9DD759" d="M 238.632812 195.996094 L 221.59375 195.996094 L 221.59375 144.863281 L 238.632812 144.863281 L 238.632812 195.996094"/><path fill="#9DD759" d="M 221.59375 196.015625 L 238.632812 195.984375 L 238.644531 213.035156 L 221.59375 213.066406 L 221.59375 196.015625"/><path fill="#9DD759" d="M 221.605469 196.015625 L 238.632812 195.996094 L 238.632812 213.035156 L 221.605469 213.050781 L 221.605469 196.015625"/><path fill="#9DD759" d="M 34.109375 230.089844 L 34.089844 213.035156 L 68.183594 213.019531 L 68.171875 144.863281 L 85.242188 144.84375 L 85.253906 161.910156 L 102.273438 161.898438 L 102.292969 195.996094 L 85.242188 196.015625 L 85.253906 213.035156 L 102.273438 213.019531 L 102.292969 230.089844 L 34.109375 230.089844"/><path fill="#9DD759" d="M 34.109375 230.070312 L 34.109375 213.035156 L 68.183594 213.035156 L 68.183594 144.863281 L 85.242188 144.863281 L 85.242188 161.910156 L 102.273438 161.910156 L 102.273438 195.996094 L 85.242188 195.996094 L 85.242188 213.035156 L 102.273438 213.035156 L 102.273438 230.070312 L 34.109375 230.070312"/><path fill="#9DD759" d="M 238.632812 298.257812 L 238.613281 264.15625 L 272.726562 264.144531 L 272.738281 281.210938 L 255.683594 281.222656 L 255.699219 298.257812 L 238.632812 298.257812"/><path fill="#9DD759" d="M 272.726562 281.210938 L 255.683594 281.210938 L 255.683594 298.242188 L 238.632812 298.242188 L 238.632812 264.15625 L 272.726562 264.15625 L 272.726562 281.210938"/><path fill="#9DD759" d="M 68.183594 315.296875 L 68.171875 281.210938 L 85.242188 281.191406 L 85.253906 298.242188 L 102.273438 298.230469 L 102.292969 315.296875 L 68.183594 315.296875"/><path fill="#9DD759" d="M 85.242188 298.242188 L 102.273438 298.242188 L 102.273438 315.277344 L 68.183594 315.277344 L 68.183594 281.210938 L 85.242188 281.210938 L 85.242188 298.242188"/><path fill="#9DD759" d="M 17.050781 144.875 L 17.039062 110.789062 L 34.109375 110.777344 L 34.089844 59.667969 L 51.144531 59.65625 L 51.160156 144.875 L 17.050781 144.875"/><path fill="#9DD759" d="M 17.050781 144.863281 L 17.050781 110.789062 L 34.109375 110.789062 L 34.109375 59.667969 L 51.144531 59.667969 L 51.144531 144.863281 L 17.050781 144.863281"/><path fill="#9DD759" d="M 102.273438 281.222656 L 102.261719 264.15625 L 136.371094 264.144531 L 136.382812 281.222656 L 102.273438 281.222656"/><path fill="#9DD759" d="M 102.273438 281.210938 L 102.273438 264.15625 L 136.371094 264.15625 L 136.371094 281.210938 L 102.273438 281.210938"/><path fill="#9DD759" d="M 272.726562 349.382812 L 272.707031 332.328125 L 289.757812 332.3125 L 289.746094 264.15625 L 306.828125 264.144531 L 306.847656 349.382812 L 272.726562 349.382812"/><path fill="#9DD759" d="M 289.757812 264.15625 L 306.828125 264.15625 L 306.828125 349.363281 L 272.726562 349.363281 L 272.726562 332.328125 L 289.757812 332.328125 L 289.757812 264.15625"/><path fill="#9DD759" d="M 528.421875 383.484375 L 528.402344 366.429688 L 579.554688 366.417969 L 579.539062 349.382812 L 562.511719 349.394531 L 562.5 332.34375 L 630.683594 332.328125 L 630.695312 366.429688 L 596.609375 366.449219 L 596.625 383.484375 L 528.421875 383.484375"/><path fill="#9DD759" d="M 630.683594 332.34375 L 630.683594 366.429688 L 596.609375 366.429688 L 596.609375 383.464844 L 528.421875 383.464844 L 528.421875 366.429688 L 579.554688 366.429688 L 579.554688 349.382812 L 562.511719 349.382812 L 562.511719 332.34375 L 630.683594 332.34375"/><path fill="#9DD759" d="M 426.140625 213.050781 L 426.128906 178.949219 L 426.148438 161.929688 L 443.1875 161.898438 L 443.199219 213.050781 L 426.140625 213.050781"/><path fill="#9DD759" d="M 426.160156 161.929688 L 443.1875 161.910156 L 443.1875 213.035156 L 426.140625 213.035156 L 426.140625 178.949219 L 426.160156 178.949219 L 426.160156 161.929688"/><path fill="#9DD759" d="M 630.671875 93.753906 L 630.652344 59.667969 L 647.722656 59.65625 L 647.734375 93.753906 L 630.671875 93.753906"/><path fill="#9DD759" d="M 630.671875 59.667969 L 647.722656 59.667969 L 647.722656 93.742188 L 630.671875 93.742188 L 630.671875 59.667969"/><path fill="#9DD759" d="M 426.140625 161.929688 L 426.128906 144.863281 L 443.1875 144.84375 L 443.167969 110.789062 L 460.222656 110.777344 L 460.238281 144.863281 L 460.238281 161.929688 L 426.140625 161.929688"/><path fill="#9DD759" d="M 460.222656 144.863281 L 460.238281 144.863281 L 460.222656 161.910156 L 426.140625 161.910156 L 426.140625 144.863281 L 443.1875 144.863281 L 443.1875 110.789062 L 460.222656 110.789062 L 460.222656 144.863281"/><path fill="#9DD759" d="M 613.632812 161.929688 L 613.613281 144.863281 L 630.671875 144.84375 L 630.683594 161.929688 L 613.632812 161.929688"/><path fill="#9DD759" d="M 630.671875 161.910156 L 613.632812 161.910156 L 613.632812 144.863281 L 630.671875 144.863281 L 630.671875 161.910156"/><path fill="#9DD759" d="M 664.757812 127.839844 L 664.746094 110.789062 L 681.800781 110.777344 L 681.785156 59.667969 L 732.964844 59.65625 L 732.976562 76.703125 L 698.867188 76.722656 L 698.886719 127.839844 L 664.757812 127.839844"/><path fill="#9DD759" d="M 732.964844 59.667969 L 732.964844 76.703125 L 698.867188 76.703125 L 698.867188 127.828125 L 664.757812 127.828125 L 664.757812 110.789062 L 681.800781 110.789062 L 681.800781 59.667969 L 732.964844 59.667969"/><path fill="#9DD759" d="M 579.539062 230.089844 L 579.523438 178.949219 L 596.59375 178.929688 L 596.574219 161.910156 L 613.632812 161.898438 L 613.644531 195.996094 L 596.59375 196.015625 L 596.605469 230.089844 L 579.539062 230.089844"/><path fill="#9DD759" d="M 613.632812 161.910156 L 613.632812 195.996094 L 596.59375 195.996094 L 596.59375 230.070312 L 579.539062 230.070312 L 579.539062 178.949219 L 596.59375 178.949219 L 596.59375 161.910156 L 613.632812 161.910156"/><path fill="#9DD759" d="M 613.632812 178.96875 L 613.632812 161.929688 L 630.683594 161.910156 L 630.683594 178.96875 L 613.632812 178.96875"/><path fill="#9DD759" d="M 613.644531 161.929688 L 630.683594 161.929688 L 630.671875 178.949219 L 613.632812 178.949219 L 613.644531 161.929688"/><path fill="#36A33E" d="M 17.050781 298.273438 L 17.039062 281.222656 L 34.109375 281.210938 L 34.121094 298.273438 L 17.050781 298.273438"/><path fill="#36A33E" d="M 34.109375 281.222656 L 34.109375 298.257812 L 17.050781 298.257812 L 17.050781 281.222656 L 34.109375 281.222656"/><path fill="#36A33E" d="M 68.203125 247.148438 L 68.183594 230.089844 L 85.242188 230.070312 L 85.253906 247.148438 L 68.203125 247.148438"/><path fill="#36A33E" d="M 68.203125 247.136719 L 68.203125 230.089844 L 85.242188 230.089844 L 85.242188 247.136719 L 68.203125 247.136719"/><path fill="#36A33E" d="M 68.183594 281.234375 L 68.171875 264.175781 L 102.273438 264.15625 L 102.292969 281.234375 L 68.183594 281.234375"/><path fill="#36A33E" d="M 102.273438 281.222656 L 68.183594 281.222656 L 68.183594 264.175781 L 102.273438 264.175781 L 102.273438 281.222656"/><path fill="#36A33E" d="M 102.292969 161.941406 L 102.28125 144.863281 L 85.242188 144.875 L 85.222656 110.789062 L 102.273438 110.777344 L 102.292969 127.828125 L 119.332031 127.8125 L 119.34375 144.863281 L 136.371094 144.84375 L 136.382812 161.941406 L 102.292969 161.941406"/><path fill="#36A33E" d="M 136.371094 144.863281 L 136.371094 161.929688 L 102.292969 161.929688 L 102.292969 144.863281 L 85.242188 144.863281 L 85.242188 110.789062 L 102.273438 110.789062 L 102.273438 127.828125 L 119.332031 127.828125 L 119.332031 144.863281 L 136.371094 144.863281"/><path fill="#36A33E" d="M 102.273438 264.1875 L 102.261719 247.136719 L 85.253906 247.148438 L 85.242188 230.089844 L 136.371094 230.070312 L 136.382812 264.1875 L 102.273438 264.1875"/><path fill="#36A33E" d="M 136.371094 264.175781 L 102.273438 264.175781 L 102.273438 247.136719 L 85.253906 247.136719 L 85.253906 230.089844 L 136.371094 230.089844 L 136.371094 264.175781"/><path fill="#36A33E" d="M 136.382812 366.449219 L 136.371094 349.382812 L 136.371094 332.34375 L 51.144531 332.363281 L 51.132812 315.296875 L 34.109375 315.308594 L 34.089844 298.257812 L 34.109375 281.222656 L 68.183594 281.210938 L 68.203125 315.296875 L 153.40625 315.277344 L 153.421875 332.34375 L 153.421875 349.382812 L 153.4375 366.449219 L 136.382812 366.449219"/><path fill="#36A33E" d="M 136.382812 349.382812 L 136.371094 349.382812 L 136.382812 332.34375 L 51.144531 332.34375 L 51.144531 315.296875 L 34.109375 315.296875 L 34.109375 298.257812 L 34.121094 298.257812 L 34.121094 281.222656 L 68.183594 281.222656 L 68.183594 315.296875 L 153.40625 315.296875 L 153.40625 332.34375 L 153.421875 332.34375 L 153.40625 349.382812 L 153.421875 349.382812 L 153.421875 366.429688 L 136.382812 366.429688 L 136.382812 349.382812"/><path fill="#36A33E" d="M 153.40625 247.148438 L 153.394531 230.089844 L 153.40625 213.050781 L 153.394531 196.015625 L 136.371094 196.035156 L 136.351562 161.929688 L 153.40625 161.910156 L 153.421875 178.96875 L 170.464844 178.949219 L 170.476562 213.050781 L 170.476562 247.148438 L 153.40625 247.148438"/><path fill="#36A33E" d="M 170.464844 230.089844 L 170.464844 247.136719 L 153.40625 247.136719 L 153.40625 230.089844 L 153.421875 213.050781 L 153.40625 213.050781 L 153.40625 196.015625 L 136.371094 196.015625 L 136.371094 161.929688 L 153.40625 161.929688 L 153.40625 178.96875 L 170.464844 178.96875 L 170.464844 213.050781 L 170.476562 213.050781 L 170.464844 230.089844"/><path fill="#36A33E" d="M 85.253906 400.515625 L 85.242188 383.464844 L 68.183594 383.484375 L 68.171875 349.382812 L 136.371094 349.363281 L 136.382812 366.429688 L 102.273438 366.449219 L 102.292969 400.515625 L 85.253906 400.515625"/><path fill="#36A33E" d="M 102.273438 366.429688 L 102.273438 400.503906 L 85.253906 400.503906 L 85.253906 383.464844 L 68.183594 383.464844 L 68.183594 349.382812 L 136.371094 349.382812 L 136.371094 366.429688 L 102.273438 366.429688"/><path fill="#36A33E" d="M 306.828125 349.394531 L 306.816406 264.175781 L 323.867188 264.15625 L 323.855469 247.136719 L 306.828125 247.148438 L 306.816406 230.089844 L 289.777344 230.101562 L 289.789062 247.136719 L 221.605469 247.148438 L 221.59375 213.050781 L 238.644531 213.035156 L 238.632812 127.828125 L 221.605469 127.839844 L 221.625 161.929688 L 204.535156 161.941406 L 204.523438 110.789062 L 204.535156 93.742188 L 204.535156 76.703125 L 221.605469 76.691406 L 221.625 93.742188 L 238.644531 93.722656 L 238.65625 110.789062 L 255.699219 110.777344 L 255.714844 161.929688 L 272.738281 161.910156 L 272.753906 196.015625 L 255.699219 196.035156 L 255.714844 230.089844 L 272.738281 230.070312 L 272.726562 213.050781 L 289.777344 213.035156 L 289.765625 178.96875 L 306.828125 178.949219 L 306.847656 196.015625 L 323.867188 195.996094 L 323.886719 230.089844 L 340.925781 230.070312 L 340.90625 196.015625 L 357.960938 195.996094 L 357.945312 178.96875 L 375 178.949219 L 375.015625 230.089844 L 392.070312 230.070312 L 392.082031 247.136719 L 409.109375 247.117188 L 409.121094 264.175781 L 375 264.1875 L 374.980469 247.136719 L 340.925781 247.148438 L 340.9375 298.257812 L 323.867188 298.273438 L 323.886719 349.394531 L 306.828125 349.394531"/><path fill="#36A33E" d="M 340.925781 298.257812 L 323.867188 298.257812 L 323.867188 349.382812 L 306.828125 349.382812 L 306.828125 264.175781 L 323.867188 264.175781 L 323.867188 247.136719 L 306.828125 247.136719 L 306.828125 230.089844 L 289.777344 230.089844 L 289.777344 247.136719 L 221.605469 247.136719 L 221.605469 213.050781 L 238.644531 213.050781 L 238.644531 127.828125 L 221.605469 127.828125 L 221.605469 161.929688 L 204.535156 161.929688 L 204.535156 110.789062 L 204.554688 93.742188 L 204.554688 76.703125 L 221.605469 76.703125 L 221.605469 93.742188 L 238.644531 93.742188 L 238.644531 110.789062 L 255.699219 110.789062 L 255.699219 161.929688 L 272.738281 161.929688 L 272.738281 196.015625 L 255.699219 196.015625 L 255.699219 230.089844 L 272.738281 230.089844 L 272.738281 213.050781 L 289.777344 213.050781 L 289.777344 178.96875 L 306.828125 178.96875 L 306.828125 196.015625 L 323.867188 196.015625 L 323.867188 230.089844 L 340.925781 230.089844 L 340.925781 196.015625 L 357.960938 196.015625 L 357.960938 178.96875 L 375 178.96875 L 375 230.089844 L 392.070312 230.089844 L 392.070312 247.136719 L 409.109375 247.136719 L 409.109375 264.175781 L 375 264.175781 L 375 247.136719 L 340.925781 247.136719 L 340.925781 298.257812"/><path fill="#36A33E" d="M 289.777344 553.898438 L 289.765625 434.589844 L 272.738281 434.605469 L 272.726562 417.550781 L 255.699219 417.570312 L 255.683594 400.503906 L 204.535156 400.515625 L 204.554688 417.550781 L 102.273438 417.570312 L 102.261719 400.503906 L 102.28125 383.464844 L 119.332031 383.449219 L 119.34375 400.503906 L 187.503906 400.484375 L 187.484375 383.464844 L 221.605469 383.449219 L 221.59375 366.429688 L 204.535156 366.449219 L 204.523438 332.34375 L 187.503906 332.363281 L 187.484375 315.296875 L 187.503906 298.257812 L 170.464844 298.273438 L 170.445312 247.136719 L 187.503906 247.117188 L 187.515625 281.222656 L 204.535156 281.210938 L 204.566406 315.296875 L 221.605469 315.277344 L 221.625 349.382812 L 238.644531 349.363281 L 238.65625 366.429688 L 272.738281 366.417969 L 272.726562 349.382812 L 306.828125 349.363281 L 306.847656 366.429688 L 289.777344 366.449219 L 289.789062 383.464844 L 272.738281 383.484375 L 272.753906 400.503906 L 289.777344 400.484375 L 289.789062 417.550781 L 306.828125 417.539062 L 306.847656 553.898438 L 289.777344 553.898438"/><path fill="#36A33E" d="M 272.738281 349.382812 L 306.828125 349.382812 L 306.828125 366.429688 L 289.777344 366.429688 L 289.777344 383.464844 L 272.738281 383.464844 L 272.738281 400.503906 L 289.777344 400.503906 L 289.777344 417.550781 L 306.828125 417.550781 L 306.828125 553.882812 L 289.777344 553.882812 L 289.777344 434.589844 L 272.738281 434.589844 L 272.738281 417.550781 L 255.699219 417.550781 L 255.699219 400.503906 L 204.535156 400.503906 L 204.535156 417.550781 L 102.273438 417.550781 L 102.273438 400.503906 L 102.292969 400.503906 L 102.292969 383.464844 L 119.332031 383.464844 L 119.332031 400.503906 L 187.503906 400.503906 L 187.503906 383.464844 L 221.605469 383.464844 L 221.605469 366.429688 L 204.535156 366.429688 L 204.535156 332.34375 L 187.503906 332.34375 L 187.503906 315.296875 L 187.515625 315.296875 L 187.515625 298.257812 L 170.464844 298.257812 L 170.464844 247.136719 L 187.503906 247.136719 L 187.503906 281.222656 L 204.535156 281.222656 L 204.535156 298.257812 L 204.554688 298.257812 L 204.554688 315.296875 L 221.605469 315.296875 L 221.605469 349.382812 L 238.644531 349.382812 L 238.644531 366.429688 L 272.738281 366.429688 L 272.738281 349.382812"/><path fill="#36A33E" d="M 460.238281 161.941406 L 460.222656 93.742188 L 443.199219 93.753906 L 443.1875 59.667969 L 460.238281 59.65625 L 460.222656 42.621094 L 477.292969 42.605469 L 477.308594 127.828125 L 494.332031 127.8125 L 494.347656 161.941406 L 460.238281 161.941406"/><path fill="#36A33E" d="M 460.238281 93.742188 L 443.199219 93.742188 L 443.199219 59.667969 L 460.238281 59.667969 L 460.238281 42.621094 L 477.292969 42.621094 L 477.292969 127.828125 L 494.332031 127.828125 L 494.332031 161.929688 L 460.238281 161.929688 L 460.238281 93.742188"/><path fill="#36A33E" d="M 375 178.980469 L 374.980469 161.929688 L 392.070312 161.910156 L 392.082031 178.980469 L 375 178.980469"/><path fill="#36A33E" d="M 392.070312 178.96875 L 375 178.96875 L 375 161.929688 L 392.070312 161.929688 L 392.070312 178.96875"/><path fill="#36A33E" d="M 17.050781 247.148438 L 17.039062 230.089844 L 0.0195312 230.101562 L 0 196.015625 L 51.144531 195.996094 L 51.132812 178.96875 L 17.050781 178.980469 L 17.039062 161.929688 L 0.0195312 161.941406 L 0 93.742188 L 17.050781 93.722656 L 17.039062 25.582031 L 51.144531 25.570312 L 51.160156 42.621094 L 136.371094 42.605469 L 136.382812 59.667969 L 170.464844 59.65625 L 170.476562 76.703125 L 187.503906 76.691406 L 187.515625 144.863281 L 170.464844 144.875 L 170.445312 93.742188 L 153.40625 93.753906 L 153.394531 76.703125 L 119.332031 76.722656 L 119.3125 59.667969 L 34.109375 59.6875 L 34.121094 110.789062 L 17.050781 110.808594 L 17.070312 144.863281 L 34.109375 144.84375 L 34.121094 161.929688 L 68.183594 161.910156 L 68.203125 213.050781 L 34.109375 213.066406 L 34.140625 230.089844 L 68.183594 230.070312 L 68.203125 247.148438 L 17.050781 247.148438"/><path fill="#36A33E" d="M 17.050781 230.089844 L 0.0195312 230.089844 L 0.0195312 196.015625 L 51.144531 196.015625 L 51.144531 178.96875 L 17.050781 178.96875 L 17.050781 161.929688 L 0.0195312 161.929688 L 0.0195312 93.742188 L 17.050781 93.742188 L 17.050781 25.582031 L 51.144531 25.582031 L 51.144531 42.621094 L 136.371094 42.621094 L 136.371094 59.667969 L 170.464844 59.667969 L 170.464844 76.703125 L 187.503906 76.703125 L 187.503906 144.863281 L 170.464844 144.863281 L 170.464844 93.742188 L 153.40625 93.742188 L 153.40625 76.703125 L 119.332031 76.703125 L 119.332031 59.667969 L 34.109375 59.667969 L 34.109375 110.789062 L 17.050781 110.789062 L 17.050781 144.863281 L 34.109375 144.863281 L 34.109375 161.929688 L 68.183594 161.929688 L 68.183594 213.050781 L 34.109375 213.050781 L 34.121094 230.089844 L 68.183594 230.089844 L 68.183594 247.136719 L 17.050781 247.136719 L 17.050781 230.089844"/><path fill="#36A33E" d="M 409.109375 247.148438 L 409.089844 110.789062 L 426.160156 110.777344 L 426.148438 93.742188 L 443.199219 93.722656 L 443.210938 144.863281 L 426.160156 144.875 L 426.179688 247.148438 L 409.109375 247.148438"/><path fill="#36A33E" d="M 426.160156 247.136719 L 409.109375 247.136719 L 409.109375 110.789062 L 426.160156 110.789062 L 426.160156 93.742188 L 443.199219 93.742188 L 443.199219 144.863281 L 426.160156 144.863281 L 426.160156 247.136719"/><path fill="#36A33E" d="M 494.332031 76.722656 L 494.3125 59.667969 L 511.382812 59.65625 L 511.402344 76.722656 L 494.332031 76.722656"/><path fill="#36A33E" d="M 511.382812 76.703125 L 494.332031 76.703125 L 494.332031 59.667969 L 511.382812 59.667969 L 511.382812 76.703125"/><path fill="#36A33E" d="M 579.566406 281.234375 L 579.554688 264.175781 L 613.644531 264.15625 L 613.664062 281.234375 L 579.566406 281.234375"/><path fill="#36A33E" d="M 613.644531 264.175781 L 613.644531 281.222656 L 579.566406 281.222656 L 579.566406 264.175781 L 613.644531 264.175781"/><path fill="#36A33E" d="M 579.554688 332.363281 L 579.539062 315.296875 L 545.480469 315.308594 L 545.460938 281.222656 L 545.441406 264.175781 L 579.554688 264.15625 L 579.566406 281.222656 L 562.53125 281.234375 L 562.542969 298.257812 L 596.625 298.242188 L 596.625 332.363281 L 579.554688 332.363281"/><path fill="#36A33E" d="M 596.609375 315.296875 L 596.609375 332.34375 L 579.554688 332.34375 L 579.554688 315.296875 L 545.480469 315.296875 L 545.480469 281.222656 L 545.460938 281.222656 L 545.460938 264.175781 L 579.554688 264.175781 L 579.554688 281.222656 L 562.53125 281.222656 L 562.53125 298.257812 L 596.625 298.257812 L 596.609375 315.296875"/><path fill="#36A33E" d="M 630.683594 127.839844 L 630.671875 110.789062 L 664.773438 110.777344 L 664.792969 127.839844 L 630.683594 127.839844"/><path fill="#36A33E" d="M 630.683594 127.828125 L 630.683594 110.789062 L 664.773438 110.789062 L 664.773438 127.828125 L 630.683594 127.828125"/><path fill="#36A33E" d="M 426.160156 553.898438 L 426.148438 400.503906 L 443.199219 400.484375 L 443.1875 383.464844 L 357.960938 383.484375 L 357.945312 366.429688 L 340.925781 366.449219 L 340.90625 298.257812 L 357.960938 298.242188 L 357.976562 349.382812 L 375 349.363281 L 375.015625 366.429688 L 443.199219 366.417969 L 443.1875 332.34375 L 460.238281 332.328125 L 460.25 383.464844 L 494.332031 383.449219 L 494.347656 400.503906 L 562.511719 400.484375 L 562.5 383.464844 L 613.644531 383.449219 L 613.632812 366.429688 L 630.683594 366.417969 L 630.671875 349.382812 L 647.734375 349.363281 L 647.722656 332.34375 L 596.609375 332.363281 L 596.609375 315.296875 L 664.792969 315.277344 L 664.804688 332.34375 L 664.792969 366.429688 L 647.734375 366.449219 L 647.753906 383.464844 L 630.683594 383.484375 L 630.695312 400.503906 L 579.554688 400.515625 L 579.566406 417.550781 L 477.292969 417.570312 L 477.277344 400.503906 L 460.238281 400.515625 L 460.25 417.550781 L 443.199219 417.570312 L 443.210938 553.898438 L 426.160156 553.898438"/><path fill="#36A33E" d="M 596.625 315.296875 L 664.792969 315.296875 L 664.792969 332.34375 L 664.773438 332.34375 L 664.773438 366.429688 L 647.734375 366.429688 L 647.734375 383.464844 L 630.683594 383.464844 L 630.683594 400.503906 L 579.554688 400.503906 L 579.554688 417.550781 L 477.292969 417.550781 L 477.292969 400.503906 L 460.238281 400.503906 L 460.238281 417.550781 L 443.199219 417.550781 L 443.199219 553.882812 L 426.160156 553.882812 L 426.160156 400.503906 L 443.199219 400.503906 L 443.199219 383.464844 L 357.960938 383.464844 L 357.960938 366.429688 L 340.925781 366.429688 L 340.925781 298.257812 L 357.960938 298.257812 L 357.960938 349.382812 L 375 349.382812 L 375 366.429688 L 443.199219 366.429688 L 443.199219 332.34375 L 460.238281 332.34375 L 460.238281 383.464844 L 494.332031 383.464844 L 494.332031 400.503906 L 562.511719 400.503906 L 562.511719 383.464844 L 613.644531 383.464844 L 613.644531 366.429688 L 630.683594 366.429688 L 630.683594 349.382812 L 647.734375 349.382812 L 647.734375 332.34375 L 596.609375 332.34375 L 596.625 315.296875"/><path fill="#36A33E" d="M 664.773438 110.808594 L 664.761719 93.742188 L 681.816406 93.722656 L 681.828125 110.808594 L 664.773438 110.808594"/><path fill="#36A33E" d="M 681.816406 110.789062 L 664.773438 110.789062 L 664.773438 93.742188 L 681.816406 93.742188 L 681.816406 110.789062"/><g clip-path="url(#b)" fill="#36A33E"><path d="M 562.511719 93.753906 L 562.5 25.582031 L 545.460938 25.601562 L 545.480469 42.621094 L 528.421875 42.636719 L 528.441406 59.667969 L 511.382812 59.6875 L 511.371094 25.582031 L 528.421875 25.570312 L 528.402344 8.535156 L 596.609375 8.515625 L 596.625 42.621094 L 579.554688 42.636719 L 579.566406 76.703125 L 596.609375 76.691406 L 596.59375 59.667969 L 613.644531 59.65625 L 613.632812 42.621094 L 732.964844 42.605469 L 732.976562 59.667969 L 630.683594 59.6875 L 630.695312 76.703125 L 613.644531 76.722656 L 613.664062 93.753906 L 562.511719 93.753906"/><path d="M 528.421875 59.667969 L 511.382812 59.667969 L 511.382812 25.582031 L 528.421875 25.582031 L 528.421875 8.535156 L 596.609375 8.535156 L 596.609375 42.621094 L 579.554688 42.621094 L 579.554688 76.703125 L 596.609375 76.703125 L 596.609375 59.667969 L 613.644531 59.667969 L 613.644531 42.621094 L 732.964844 42.621094 L 732.964844 59.667969 L 630.683594 59.667969 L 630.683594 76.703125 L 613.644531 76.703125 L 613.644531 93.742188 L 562.511719 93.742188 L 562.511719 25.582031 L 545.460938 25.582031 L 545.460938 42.621094 L 528.421875 42.621094 L 528.421875 59.667969"/></g><path fill="#36A33E" d="M 545.460938 196.035156 L 545.441406 178.96875 L 562.511719 178.949219 L 562.53125 196.035156 L 545.460938 196.035156"/><path fill="#36A33E" d="M 545.460938 178.96875 L 562.511719 178.96875 L 562.511719 196.015625 L 545.460938 196.015625 L 545.460938 178.96875"/><path fill="#36A33E" d="M 596.609375 144.875 L 596.59375 127.828125 L 630.683594 127.8125 L 630.695312 144.875 L 596.609375 144.875"/><path fill="#36A33E" d="M 596.609375 144.863281 L 596.609375 127.828125 L 630.683594 127.828125 L 630.683594 144.863281 L 596.609375 144.863281"/><path fill="#36A33E" d="M 460.238281 315.308594 L 460.222656 281.222656 L 477.292969 281.210938 L 477.277344 247.136719 L 494.332031 247.117188 L 494.3125 230.089844 L 511.382812 230.070312 L 511.371094 213.050781 L 528.421875 213.035156 L 528.402344 196.015625 L 545.460938 195.996094 L 545.480469 230.089844 L 528.421875 230.101562 L 528.441406 247.136719 L 511.382812 247.148438 L 511.402344 264.175781 L 494.332031 264.1875 L 494.347656 298.257812 L 477.292969 298.273438 L 477.308594 315.308594 L 460.238281 315.308594"/><path fill="#36A33E" d="M 528.421875 196.015625 L 545.460938 196.015625 L 545.460938 230.089844 L 528.421875 230.089844 L 528.421875 247.136719 L 511.382812 247.136719 L 511.382812 264.175781 L 494.332031 264.175781 L 494.332031 298.257812 L 477.292969 298.257812 L 477.292969 315.296875 L 460.238281 315.296875 L 460.238281 281.222656 L 477.292969 281.222656 L 477.292969 247.136719 L 494.332031 247.136719 L 494.332031 230.089844 L 511.382812 230.089844 L 511.382812 213.050781 L 528.421875 213.050781 L 528.421875 196.015625"/><path fill="#36A33E" d="M 562.511719 178.980469 L 562.5 144.863281 L 596.609375 144.84375 L 596.625 161.929688 L 579.554688 161.941406 L 579.566406 178.980469 L 562.511719 178.980469"/><path fill="#36A33E" d="M 596.609375 144.863281 L 596.609375 161.929688 L 579.554688 161.929688 L 579.554688 178.96875 L 562.511719 178.96875 L 562.511719 144.863281 L 596.609375 144.863281"/><path fill="#36A33E" d="M 613.664062 298.273438 L 613.644531 264.175781 L 681.828125 264.15625 L 681.84375 281.222656 L 647.753906 281.234375 L 647.773438 298.273438 L 613.664062 298.273438"/><path fill="#36A33E" d="M 613.664062 264.175781 L 681.828125 264.175781 L 681.828125 281.222656 L 647.753906 281.222656 L 647.753906 298.257812 L 613.664062 298.257812 L 613.664062 264.175781"/><path fill="#36A33E" d="M 664.757812 197.261719 L 664.746094 180.234375 L 647.722656 180.253906 L 647.734375 197.261719 Z M 630.695312 214.308594 L 647.722656 214.296875 L 647.703125 197.273438 L 630.695312 197.292969 Z M 681.828125 264.1875 L 681.816406 213.050781 L 647.753906 213.066406 L 647.773438 230.089844 L 613.664062 230.101562 L 613.644531 178.96875 L 630.695312 178.949219 L 630.683594 161.929688 L 664.792969 161.910156 L 664.773438 144.863281 L 698.886719 144.84375 L 698.867188 127.828125 L 715.925781 127.8125 L 715.90625 76.703125 L 732.988281 76.691406 L 732.976562 42.621094 L 750.035156 42.605469 L 750.046875 93.742188 L 732.988281 93.753906 L 733.007812 144.863281 L 715.925781 144.875 L 715.9375 161.929688 L 681.828125 161.941406 L 681.84375 178.96875 L 698.867188 178.949219 L 698.902344 196.015625 L 715.925781 195.996094 L 732.988281 195.996094 L 733.007812 213.050781 L 715.925781 213.066406 L 715.9375 230.089844 L 698.886719 230.101562 L 698.902344 264.1875 L 681.828125 264.1875"/><path fill="#36A33E" d="M 664.757812 197.273438 L 647.722656 197.273438 L 647.722656 214.308594 L 630.683594 214.308594 L 630.683594 197.273438 L 647.722656 197.273438 L 647.722656 180.234375 L 664.757812 180.234375 Z M 732.988281 42.621094 L 732.988281 76.703125 L 715.925781 76.703125 L 715.925781 127.828125 L 698.886719 127.828125 L 698.886719 144.863281 L 664.792969 144.863281 L 664.792969 161.929688 L 630.695312 161.929688 L 630.695312 178.96875 L 613.664062 178.96875 L 613.664062 230.089844 L 647.753906 230.089844 L 647.753906 213.050781 L 681.828125 213.050781 L 681.828125 264.175781 L 698.886719 264.175781 L 698.886719 230.089844 L 715.925781 230.089844 L 715.925781 213.050781 L 732.988281 213.050781 L 732.988281 196.015625 L 698.886719 196.015625 L 698.867188 178.96875 L 681.828125 178.96875 L 681.828125 161.929688 L 715.925781 161.929688 L 715.925781 144.863281 L 732.988281 144.863281 L 732.988281 93.742188 L 750.035156 93.742188 L 750.035156 42.621094 L 732.988281 42.621094"/></svg>