<svg xmlns="http://www.w3.org/2000/svg" width="750" viewBox="0 0 750 750" height="750" version="1.0"><defs><clipPath id="a"><path d="M 0 50.453125 L 750 50.453125 L 750 675.203125 L 0 675.203125 Z M 0 50.453125"/></clipPath><clipPath id="b"><path d="M 0 50.453125 L 750 50.453125 L 750 675.203125 L 0 675.203125 Z M 0 50.453125"/></clipPath></defs><g clip-path="url(#a)"><path fill="#181425" d="M 749.722656 97.3125 L 749.722656 472.160156 L 734.109375 472.160156 L 734.109375 487.78125 L 718.496094 487.78125 L 718.496094 503.398438 L 702.882812 503.398438 L 702.882812 519.015625 L 421.839844 519.015625 L 421.839844 581.492188 L 437.453125 581.492188 L 437.453125 597.109375 L 531.132812 597.109375 L 531.132812 612.730469 L 546.75 612.730469 L 546.75 628.347656 L 562.363281 628.347656 L 562.363281 659.585938 L 546.75 659.585938 L 546.75 675.203125 L 203.25 675.203125 L 203.25 659.585938 L 187.636719 659.585938 L 187.636719 628.347656 L 203.25 628.347656 L 203.25 612.730469 L 218.863281 612.730469 L 218.863281 597.109375 L 312.546875 597.109375 L 312.546875 581.492188 L 328.160156 581.492188 L 328.160156 519.015625 L 47.117188 519.015625 L 47.117188 503.398438 L 31.503906 503.398438 L 31.503906 487.78125 L 15.890625 487.78125 L 15.890625 472.160156 L 0.277344 472.160156 L 0.277344 97.3125 L 15.890625 97.3125 L 15.890625 81.691406 L 31.503906 81.691406 L 31.503906 66.074219 L 47.117188 66.074219 L 47.117188 50.453125 L 702.882812 50.453125 L 702.882812 66.074219 L 718.496094 66.074219 L 718.496094 81.691406 L 734.109375 81.691406 L 734.109375 97.3125 Z M 749.722656 97.3125"/></g><path fill="#0099DB" d="M 687.269531 112.929688 L 687.269531 456.542969 L 671.65625 456.542969 L 671.65625 472.160156 L 78.34375 472.160156 L 78.34375 456.542969 L 62.730469 456.542969 L 62.730469 112.929688 L 78.34375 112.929688 L 78.34375 97.3125 L 671.65625 97.3125 L 671.65625 112.929688 Z M 687.269531 112.929688"/><path fill="#3A4466" d="M 718.496094 97.3125 L 718.496094 81.691406 L 702.882812 81.691406 L 702.882812 66.074219 L 31.503906 66.074219 L 31.503906 81.691406 L 15.890625 81.691406 L 15.890625 97.3125 L 0.277344 97.3125 L 0.277344 128.546875 L 15.890625 128.546875 L 15.890625 144.167969 L 0.277344 144.167969 L 0.277344 159.785156 L 15.890625 159.785156 L 15.890625 206.640625 L 0.277344 206.640625 L 0.277344 237.878906 L 15.890625 237.878906 L 15.890625 331.59375 L 0.277344 331.59375 L 0.277344 362.828125 L 15.890625 362.828125 L 15.890625 472.160156 L 31.503906 472.160156 L 31.503906 487.78125 L 47.117188 487.78125 L 47.117188 503.398438 L 702.882812 503.398438 L 702.882812 487.78125 L 718.496094 487.78125 L 718.496094 472.160156 L 734.109375 472.160156 L 734.109375 97.3125 Z M 702.882812 456.542969 L 687.269531 456.542969 L 687.269531 472.160156 L 671.65625 472.160156 L 671.65625 487.78125 L 78.34375 487.78125 L 78.34375 472.160156 L 62.730469 472.160156 L 62.730469 456.542969 L 47.117188 456.542969 L 47.117188 112.929688 L 62.730469 112.929688 L 62.730469 97.3125 L 78.34375 97.3125 L 78.34375 81.691406 L 671.65625 81.691406 L 671.65625 97.3125 L 687.269531 97.3125 L 687.269531 112.929688 L 702.882812 112.929688 Z M 531.132812 612.730469 L 437.453125 612.730469 L 437.453125 597.109375 L 421.839844 597.109375 L 421.839844 581.492188 L 406.226562 581.492188 L 406.226562 519.015625 L 343.773438 519.015625 L 343.773438 581.492188 L 328.160156 581.492188 L 328.160156 597.109375 L 312.546875 597.109375 L 312.546875 612.730469 L 218.863281 612.730469 L 218.863281 628.347656 L 203.25 628.347656 L 203.25 659.585938 L 546.75 659.585938 L 546.75 628.347656 L 531.132812 628.347656 Z M 531.132812 612.730469"/><g clip-path="url(#b)"><path fill="#181425" d="M 749.722656 97.3125 L 749.722656 472.160156 L 734.109375 472.160156 L 734.109375 97.3125 Z M 15.890625 472.160156 L 15.890625 487.78125 L 31.503906 487.78125 L 31.503906 472.160156 Z M 31.503906 487.78125 L 31.503906 503.398438 L 47.117188 503.398438 L 47.117188 487.78125 Z M 47.117188 50.453125 L 47.117188 66.074219 L 702.882812 66.074219 L 702.882812 50.453125 Z M 702.882812 66.074219 L 702.882812 81.691406 L 718.496094 81.691406 L 718.496094 66.074219 Z M 718.496094 81.691406 L 718.496094 97.3125 L 734.109375 97.3125 L 734.109375 81.691406 Z M 718.496094 487.78125 L 734.109375 487.78125 L 734.109375 472.160156 L 718.496094 472.160156 Z M 702.882812 503.398438 L 718.496094 503.398438 L 718.496094 487.78125 L 702.882812 487.78125 Z M 47.117188 519.015625 L 328.160156 519.015625 L 328.160156 581.492188 L 343.773438 581.492188 L 343.773438 519.015625 L 406.226562 519.015625 L 406.226562 581.492188 L 421.839844 581.492188 L 421.839844 519.015625 L 702.882812 519.015625 L 702.882812 503.398438 L 47.117188 503.398438 Z M 62.730469 112.929688 L 47.117188 112.929688 L 47.117188 456.542969 L 62.730469 456.542969 Z M 62.730469 456.542969 L 62.730469 472.160156 L 78.34375 472.160156 L 78.34375 456.542969 Z M 78.34375 487.78125 L 671.65625 487.78125 L 671.65625 472.160156 L 78.34375 472.160156 Z M 671.65625 472.160156 L 687.269531 472.160156 L 687.269531 456.542969 L 671.65625 456.542969 Z M 702.882812 456.542969 L 702.882812 112.929688 L 687.269531 112.929688 L 687.269531 456.542969 Z M 687.269531 112.929688 L 687.269531 97.3125 L 671.65625 97.3125 L 671.65625 112.929688 Z M 671.65625 81.691406 L 78.34375 81.691406 L 78.34375 97.3125 L 671.65625 97.3125 Z M 78.34375 97.3125 L 62.730469 97.3125 L 62.730469 112.929688 L 78.34375 112.929688 Z M 328.160156 581.492188 L 312.546875 581.492188 L 312.546875 597.109375 L 328.160156 597.109375 Z M 437.453125 597.109375 L 437.453125 581.492188 L 421.839844 581.492188 L 421.839844 597.109375 Z M 312.546875 597.109375 L 218.863281 597.109375 L 218.863281 612.730469 L 312.546875 612.730469 Z M 218.863281 612.730469 L 203.25 612.730469 L 203.25 628.347656 L 218.863281 628.347656 Z M 187.636719 628.347656 L 187.636719 659.585938 L 203.25 659.585938 L 203.25 628.347656 Z M 531.132812 612.730469 L 531.132812 597.109375 L 437.453125 597.109375 L 437.453125 612.730469 Z M 546.75 628.347656 L 546.75 612.730469 L 531.132812 612.730469 L 531.132812 628.347656 Z M 562.363281 659.585938 L 562.363281 628.347656 L 546.75 628.347656 L 546.75 659.585938 Z M 203.25 675.203125 L 546.75 675.203125 L 546.75 659.585938 L 203.25 659.585938 Z M 15.890625 237.878906 L 0.277344 237.878906 L 0.277344 331.59375 L 15.890625 331.59375 Z M 0.277344 362.828125 L 0.277344 472.160156 L 15.890625 472.160156 L 15.890625 362.828125 Z M 15.890625 159.785156 L 0.277344 159.785156 L 0.277344 206.640625 L 15.890625 206.640625 Z M 15.890625 128.546875 L 0.277344 128.546875 L 0.277344 144.167969 L 15.890625 144.167969 Z M 15.890625 128.546875"/></g><path fill="#262B44" d="M 390.613281 565.875 L 375 565.875 L 375 550.253906 L 359.386719 550.253906 L 359.386719 519.015625 L 406.226562 519.015625 L 406.226562 550.253906 L 390.613281 550.253906 Z M 437.453125 612.730469 L 437.453125 597.109375 L 421.839844 597.109375 L 421.839844 612.730469 L 375 612.730469 L 375 628.347656 L 531.132812 628.347656 L 531.132812 612.730469 Z M 406.226562 581.492188 L 406.226562 597.109375 L 421.839844 597.109375 L 421.839844 581.492188 Z M 531.132812 643.96875 L 515.519531 643.96875 L 515.519531 659.585938 L 546.75 659.585938 L 546.75 628.347656 L 531.132812 628.347656 Z M 343.773438 628.347656 L 359.386719 628.347656 L 359.386719 612.730469 L 343.773438 612.730469 Z M 375 503.398438 L 702.882812 503.398438 L 702.882812 487.78125 L 375 487.78125 Z M 702.882812 487.78125 L 718.496094 487.78125 L 718.496094 472.160156 L 702.882812 472.160156 Z M 718.496094 97.3125 L 718.496094 472.160156 L 734.109375 472.160156 L 734.109375 97.3125 Z M 702.882812 81.691406 L 702.882812 97.3125 L 718.496094 97.3125 L 718.496094 81.691406 Z M 375 66.074219 L 375 81.691406 L 702.882812 81.691406 L 702.882812 66.074219 Z M 390.613281 565.875 L 390.613281 581.492188 L 406.226562 581.492188 L 406.226562 565.875 Z M 375 597.109375 L 390.613281 597.109375 L 390.613281 581.492188 L 375 581.492188 Z M 359.386719 565.875 L 359.386719 581.492188 L 375 581.492188 L 375 565.875 Z M 437.453125 659.585938 L 499.90625 659.585938 L 499.90625 643.96875 L 437.453125 643.96875 Z M 437.453125 659.585938"/><path fill="#FFF" d="M 390.613281 237.878906 L 546.75 237.878906 L 546.75 394.066406 L 328.160156 394.066406 L 328.160156 347.210938 L 203.25 347.210938 L 203.25 191.023438 L 390.613281 191.023438 Z M 93.957031 144.167969 L 109.570312 144.167969 L 109.570312 128.546875 L 93.957031 128.546875 Z M 93.957031 175.40625 L 109.570312 175.40625 L 109.570312 159.785156 L 93.957031 159.785156 Z M 93.957031 206.640625 L 109.570312 206.640625 L 109.570312 191.023438 L 93.957031 191.023438 Z M 125.183594 144.167969 L 140.796875 144.167969 L 140.796875 128.546875 L 125.183594 128.546875 Z M 125.183594 175.40625 L 140.796875 175.40625 L 140.796875 159.785156 L 125.183594 159.785156 Z M 453.066406 144.167969 L 453.066406 222.261719 L 624.816406 222.261719 L 624.816406 144.167969 Z M 453.066406 144.167969"/><path fill="#FEAE34" d="M 515.519531 284.734375 L 499.90625 284.734375 L 499.90625 269.117188 L 515.519531 269.117188 Z M 234.480469 222.261719 L 218.863281 222.261719 L 218.863281 206.640625 L 234.480469 206.640625 Z M 250.09375 206.640625 L 265.707031 206.640625 L 265.707031 222.261719 L 250.09375 222.261719 Z M 281.320312 206.640625 L 296.933594 206.640625 L 296.933594 222.261719 L 281.320312 222.261719 Z M 312.546875 206.640625 L 328.160156 206.640625 L 328.160156 222.261719 L 312.546875 222.261719 Z M 343.773438 206.640625 L 359.386719 206.640625 L 359.386719 222.261719 L 343.773438 222.261719 Z M 234.480469 237.878906 L 218.863281 237.878906 L 218.863281 253.5 L 234.480469 253.5 Z M 250.09375 237.878906 L 265.707031 237.878906 L 265.707031 253.5 L 250.09375 253.5 Z M 281.320312 237.878906 L 296.933594 237.878906 L 296.933594 253.5 L 281.320312 253.5 Z M 421.839844 284.734375 L 406.226562 284.734375 L 406.226562 269.117188 L 421.839844 269.117188 Z M 453.066406 284.734375 L 437.453125 284.734375 L 437.453125 269.117188 L 453.066406 269.117188 Z M 484.292969 284.734375 L 468.679688 284.734375 L 468.679688 269.117188 L 484.292969 269.117188 Z M 406.226562 315.972656 L 421.839844 315.972656 L 421.839844 300.355469 L 406.226562 300.355469 Z M 437.453125 315.972656 L 453.066406 315.972656 L 453.066406 300.355469 L 437.453125 300.355469 Z M 437.453125 315.972656"/><path fill="#124E89" d="M 671.65625 472.160156 L 78.34375 472.160156 L 78.34375 456.542969 L 671.65625 456.542969 Z M 375 175.40625 L 203.25 175.40625 L 203.25 191.023438 L 375 191.023438 Z M 531.132812 253.5 L 390.613281 253.5 L 390.613281 237.878906 L 531.132812 237.878906 Z M 609.203125 128.546875 L 453.066406 128.546875 L 453.066406 144.167969 L 609.203125 144.167969 Z M 609.203125 128.546875"/><path fill="#E43B44" d="M 531.132812 237.878906 L 546.75 237.878906 L 546.75 253.5 L 531.132812 253.5 Z M 375 191.023438 L 390.613281 191.023438 L 390.613281 175.40625 L 375 175.40625 Z M 609.203125 144.167969 L 624.816406 144.167969 L 624.816406 128.546875 L 609.203125 128.546875 Z M 609.203125 144.167969"/><path fill="#3A4466" d="M 546.75 253.5 L 562.363281 253.5 L 562.363281 409.6875 L 343.773438 409.6875 L 343.773438 394.066406 L 546.75 394.066406 Z M 406.226562 191.023438 L 390.613281 191.023438 L 390.613281 237.878906 L 406.226562 237.878906 Z M 218.863281 362.828125 L 328.160156 362.828125 L 328.160156 347.210938 L 218.863281 347.210938 Z M 624.816406 144.167969 L 624.816406 222.261719 L 468.679688 222.261719 L 468.679688 237.878906 L 640.429688 237.878906 L 640.429688 144.167969 Z M 624.816406 144.167969"/><path fill="#2CE8F5" d="M 78.34375 456.542969 L 62.730469 456.542969 L 62.730469 112.929688 L 78.34375 112.929688 Z M 265.707031 112.929688 L 78.34375 112.929688 L 78.34375 97.3125 L 265.707031 97.3125 Z M 93.957031 472.160156 L 78.34375 472.160156 L 78.34375 456.542969 L 93.957031 456.542969 Z M 296.933594 112.929688 L 281.320312 112.929688 L 281.320312 97.3125 L 296.933594 97.3125 Z M 343.773438 112.929688 L 312.546875 112.929688 L 312.546875 97.3125 L 343.773438 97.3125 Z M 359.386719 112.929688 L 375 112.929688 L 375 97.3125 L 359.386719 97.3125 Z M 359.386719 112.929688"/><path fill="#C0CBDC" d="M 390.613281 253.5 L 406.226562 253.5 L 406.226562 362.828125 L 328.160156 362.828125 L 328.160156 347.210938 L 390.613281 347.210938 Z M 218.863281 628.347656 L 312.546875 628.347656 L 312.546875 612.730469 L 218.863281 612.730469 Z M 203.25 659.585938 L 218.863281 659.585938 L 218.863281 628.347656 L 203.25 628.347656 Z M 15.890625 472.160156 L 31.503906 472.160156 L 31.503906 97.3125 L 15.890625 97.3125 Z M 31.503906 97.3125 L 47.117188 97.3125 L 47.117188 81.691406 L 31.503906 81.691406 Z M 47.117188 81.691406 L 62.730469 81.691406 L 62.730469 66.074219 L 47.117188 66.074219 Z M 47.117188 487.78125 L 47.117188 472.160156 L 31.503906 472.160156 L 31.503906 487.78125 Z M 62.730469 503.398438 L 62.730469 487.78125 L 47.117188 487.78125 L 47.117188 503.398438 Z M 671.65625 81.691406 L 671.65625 97.3125 L 687.269531 97.3125 L 687.269531 81.691406 Z M 671.65625 487.78125 L 687.269531 487.78125 L 687.269531 472.160156 L 671.65625 472.160156 Z M 687.269531 97.3125 L 687.269531 112.929688 L 702.882812 112.929688 L 702.882812 97.3125 Z M 687.269531 472.160156 L 702.882812 472.160156 L 702.882812 456.542969 L 687.269531 456.542969 Z M 702.882812 112.929688 L 702.882812 456.542969 L 718.496094 456.542969 L 718.496094 112.929688 Z M 312.546875 612.730469 L 328.160156 612.730469 L 328.160156 597.109375 L 312.546875 597.109375 Z M 328.160156 597.109375 L 343.773438 597.109375 L 343.773438 581.492188 L 328.160156 581.492188 Z M 343.773438 581.492188 L 359.386719 581.492188 L 359.386719 519.015625 L 343.773438 519.015625 Z M 484.292969 175.40625 L 609.203125 175.40625 L 609.203125 159.785156 L 484.292969 159.785156 Z M 515.519531 206.640625 L 609.203125 206.640625 L 609.203125 191.023438 L 515.519531 191.023438 Z M 515.519531 206.640625"/><path fill="#181425" d="M 390.613281 237.878906 L 406.226562 237.878906 L 406.226562 253.5 L 390.613281 253.5 Z M 390.613281 237.878906"/></svg>