<svg xmlns="http://www.w3.org/2000/svg" width="750" viewBox="0 0 750 750" height="750" version="1.0"><path fill="#454547" d="M 20.863281 749.917969 L 20.839844 729.050781 L 0.0234375 729.070312 L 0 687.40625 L 20.863281 687.390625 L 20.839844 645.742188 L 41.6875 645.726562 L 41.664062 604.078125 L 62.527344 604.0625 L 62.503906 458.269531 L 83.351562 458.242188 L 83.324219 437.445312 L 125.015625 437.417969 L 124.988281 416.605469 L 104.175781 416.621094 L 104.148438 20.839844 L 125.015625 20.824219 L 124.988281 0.0234375 L 624.917969 0 L 624.945312 20.839844 L 645.757812 20.824219 L 645.785156 416.605469 L 624.917969 416.621094 L 624.945312 437.445312 L 666.582031 437.417969 L 666.609375 458.269531 L 687.40625 458.242188 L 687.429688 604.078125 L 708.253906 604.0625 L 708.269531 645.742188 L 729.070312 645.726562 L 729.09375 687.40625 L 749.890625 687.390625 L 749.917969 729.050781 L 729.070312 729.070312 L 729.09375 749.917969 L 20.863281 749.917969"/><path fill="#454547" d="M 749.890625 687.40625 L 749.890625 729.050781 L 729.070312 729.050781 L 729.070312 749.890625 L 20.863281 749.890625 L 20.863281 729.050781 L 0.0234375 729.050781 L 0.0234375 687.40625 L 20.863281 687.40625 L 20.863281 645.742188 L 41.6875 645.742188 L 41.6875 604.078125 L 62.527344 604.078125 L 62.527344 458.269531 L 83.351562 458.269531 L 83.351562 437.445312 L 125.015625 437.445312 L 125.015625 416.605469 L 104.175781 416.605469 L 104.175781 20.839844 L 125.015625 20.839844 L 125.015625 0.0234375 L 624.917969 0.0234375 L 624.917969 20.839844 L 645.757812 20.839844 L 645.757812 416.605469 L 624.917969 416.605469 L 624.917969 437.445312 L 666.582031 437.445312 L 666.582031 458.269531 L 687.40625 458.269531 L 687.40625 604.078125 L 708.253906 604.078125 L 708.253906 645.742188 L 729.070312 645.742188 L 729.070312 687.40625 L 749.890625 687.40625"/><path fill="#5E6162" d="M 166.675781 354.117188 L 583.257812 354.09375 L 583.238281 62.511719 L 166.675781 62.527344 Z M 291.675781 395.78125 L 333.3125 395.757812 L 333.296875 374.957031 L 291.675781 374.976562 Z M 354.152344 395.78125 L 416.621094 395.757812 L 416.597656 374.957031 L 354.152344 374.976562 Z M 437.484375 395.78125 L 479.109375 395.757812 L 479.082031 374.957031 L 437.484375 374.976562 Z M 145.835938 416.621094 L 145.8125 41.664062 L 624.917969 41.644531 L 624.945312 416.621094 L 145.835938 416.621094"/><path fill="#5E6162" d="M 583.257812 354.117188 L 166.660156 354.117188 L 166.660156 62.511719 L 583.257812 62.511719 Z M 479.109375 395.78125 L 437.460938 395.78125 L 437.460938 374.957031 L 479.109375 374.957031 Z M 416.621094 395.78125 L 354.136719 395.78125 L 354.136719 374.957031 L 416.621094 374.957031 Z M 333.3125 395.78125 L 291.648438 395.78125 L 291.648438 374.957031 L 333.3125 374.957031 Z M 145.835938 41.664062 L 145.835938 416.605469 L 624.917969 416.605469 L 624.917969 41.664062 L 145.835938 41.664062"/><path fill="#5E6162" d="M 166.675781 645.742188 L 208.324219 645.726562 L 208.296875 624.902344 L 166.675781 624.917969 Z M 229.1875 645.742188 L 270.808594 645.726562 L 270.785156 624.902344 L 229.1875 624.917969 Z M 291.664062 645.742188 L 333.3125 645.726562 L 333.296875 624.902344 L 291.664062 624.917969 Z M 354.152344 645.742188 L 395.796875 645.726562 L 395.773438 624.902344 L 354.152344 624.917969 Z M 416.644531 645.742188 L 458.285156 645.726562 L 458.257812 624.902344 L 416.644531 624.917969 Z M 479.125 645.742188 L 520.769531 645.726562 L 520.753906 624.902344 L 479.125 624.917969 Z M 541.636719 645.742188 L 583.257812 645.726562 L 583.238281 624.902344 L 541.636719 624.917969 Z M 604.121094 645.742188 L 666.582031 645.726562 L 666.566406 624.902344 L 604.121094 624.917969 Z M 166.675781 687.40625 L 208.324219 687.390625 L 208.296875 666.566406 L 166.675781 666.582031 Z M 229.1875 687.40625 L 270.808594 687.390625 L 270.785156 666.566406 L 229.1875 666.582031 Z M 291.664062 687.40625 L 333.3125 687.390625 L 333.296875 666.566406 L 291.664062 666.582031 Z M 354.152344 687.40625 L 395.796875 687.390625 L 395.773438 666.566406 L 354.152344 666.582031 Z M 416.644531 687.40625 L 458.285156 687.390625 L 458.257812 666.566406 L 416.644531 666.582031 Z M 479.125 687.40625 L 520.769531 687.390625 L 520.753906 666.566406 L 479.125 666.582031 Z M 541.636719 687.40625 L 583.257812 687.390625 L 583.238281 666.566406 L 541.636719 666.582031 Z M 604.121094 687.40625 L 687.40625 687.390625 L 687.382812 666.566406 L 604.121094 666.582031 Z M 41.6875 729.070312 L 41.664062 687.40625 L 145.835938 687.390625 L 145.8125 666.566406 L 62.527344 666.582031 L 62.503906 645.742188 L 145.835938 645.726562 L 145.8125 624.902344 L 83.351562 624.917969 L 83.324219 604.078125 L 145.835938 604.0625 L 145.8125 583.257812 L 166.660156 583.238281 L 166.675781 604.078125 L 208.324219 604.0625 L 208.296875 583.257812 L 229.164062 583.238281 L 229.1875 604.078125 L 270.808594 604.0625 L 270.785156 583.257812 L 291.648438 583.238281 L 291.664062 604.078125 L 333.3125 604.0625 L 333.296875 583.257812 L 354.136719 583.238281 L 354.152344 604.078125 L 395.796875 604.0625 L 395.773438 583.257812 L 416.621094 583.238281 L 416.644531 604.078125 L 458.285156 604.0625 L 458.257812 583.257812 L 479.109375 583.238281 L 479.125 604.078125 L 520.769531 604.0625 L 520.753906 583.257812 L 541.617188 583.238281 L 541.636719 604.078125 L 583.257812 604.0625 L 583.238281 583.257812 L 604.097656 583.238281 L 604.121094 604.078125 L 645.757812 604.0625 L 645.742188 583.257812 L 666.582031 583.238281 L 666.609375 604.078125 L 687.40625 604.0625 L 687.429688 645.742188 L 708.253906 645.726562 L 708.269531 687.40625 L 729.070312 687.390625 L 729.09375 729.070312 L 41.6875 729.070312"/><path fill="#5E6162" d="M 604.097656 687.40625 L 604.097656 666.566406 L 687.40625 666.566406 L 687.40625 687.40625 Z M 604.097656 624.902344 L 666.582031 624.902344 L 666.582031 645.742188 L 604.097656 645.742188 Z M 583.257812 645.742188 L 541.617188 645.742188 L 541.617188 624.902344 L 583.257812 624.902344 Z M 583.257812 687.40625 L 541.617188 687.40625 L 541.617188 666.566406 L 583.257812 666.566406 Z M 520.769531 645.742188 L 479.109375 645.742188 L 479.109375 624.902344 L 520.769531 624.902344 Z M 520.769531 687.40625 L 479.109375 687.40625 L 479.109375 666.566406 L 520.769531 666.566406 Z M 458.285156 645.742188 L 416.621094 645.742188 L 416.621094 624.902344 L 458.285156 624.902344 Z M 458.285156 687.40625 L 416.621094 687.40625 L 416.621094 666.566406 L 458.285156 666.566406 Z M 395.796875 645.742188 L 354.136719 645.742188 L 354.136719 624.902344 L 395.796875 624.902344 Z M 395.796875 687.40625 L 354.136719 687.40625 L 354.136719 666.566406 L 395.796875 666.566406 Z M 333.3125 645.742188 L 291.648438 645.742188 L 291.648438 624.902344 L 333.3125 624.902344 Z M 333.3125 687.40625 L 291.648438 687.40625 L 291.648438 666.566406 L 333.3125 666.566406 Z M 270.808594 645.742188 L 229.164062 645.742188 L 229.164062 624.902344 L 270.808594 624.902344 Z M 270.808594 687.40625 L 229.164062 687.40625 L 229.164062 666.566406 L 270.808594 666.566406 Z M 208.324219 645.742188 L 166.660156 645.742188 L 166.660156 624.902344 L 208.324219 624.902344 Z M 208.324219 687.40625 L 166.660156 687.40625 L 166.660156 666.566406 L 208.324219 666.566406 Z M 708.253906 687.40625 L 708.253906 645.742188 L 687.40625 645.742188 L 687.40625 604.078125 L 666.582031 604.078125 L 666.582031 583.257812 L 645.757812 583.257812 L 645.757812 604.078125 L 604.097656 604.078125 L 604.097656 583.257812 L 583.257812 583.257812 L 583.257812 604.078125 L 541.617188 604.078125 L 541.617188 583.257812 L 520.769531 583.257812 L 520.769531 604.078125 L 479.109375 604.078125 L 479.109375 583.257812 L 458.285156 583.257812 L 458.285156 604.078125 L 416.621094 604.078125 L 416.621094 583.257812 L 395.796875 583.257812 L 395.796875 604.078125 L 354.136719 604.078125 L 354.136719 583.257812 L 333.3125 583.257812 L 333.3125 604.078125 L 291.648438 604.078125 L 291.648438 583.257812 L 270.808594 583.257812 L 270.808594 604.078125 L 229.164062 604.078125 L 229.164062 583.257812 L 208.324219 583.257812 L 208.324219 604.078125 L 166.660156 604.078125 L 166.660156 583.257812 L 145.835938 583.257812 L 145.835938 604.078125 L 83.351562 604.078125 L 83.351562 624.902344 L 145.835938 624.902344 L 145.835938 645.742188 L 62.527344 645.742188 L 62.527344 666.566406 L 145.835938 666.566406 L 145.835938 687.40625 L 41.6875 687.40625 L 41.6875 729.050781 L 729.070312 729.050781 L 729.070312 687.40625 L 708.253906 687.40625"/><path fill="#5E6162" d="M 104.175781 541.617188 L 104.148438 479.109375 L 562.433594 479.089844 L 562.457031 499.929688 L 479.109375 499.949219 L 479.125 520.753906 L 624.917969 520.730469 L 624.902344 479.109375 L 666.582031 479.089844 L 666.609375 541.617188 L 104.175781 541.617188"/><path fill="#5E6162" d="M 666.582031 479.109375 L 666.582031 541.59375 L 104.175781 541.59375 L 104.175781 479.109375 L 562.433594 479.109375 L 562.433594 499.929688 L 479.109375 499.929688 L 479.109375 520.753906 L 624.917969 520.753906 L 624.917969 479.109375 L 666.582031 479.109375"/><path fill="#E78F1C" d="M 604.097656 645.769531 L 604.078125 624.902344 L 666.582031 624.878906 L 666.609375 645.769531 L 604.097656 645.769531"/><path fill="#E78F1C" d="M 666.582031 624.902344 L 666.582031 645.742188 L 604.097656 645.742188 L 604.097656 624.902344 L 666.582031 624.902344"/><path fill="#E78F1C" d="M 604.097656 604.105469 L 604.078125 583.257812 L 645.757812 583.238281 L 645.785156 604.105469 L 604.097656 604.105469"/><path fill="#E78F1C" d="M 604.097656 604.078125 L 604.097656 583.257812 L 645.757812 583.257812 L 645.757812 604.078125 L 604.097656 604.078125"/><path fill="#567CC7" d="M 562.433594 499.949219 L 562.417969 479.109375 L 624.917969 479.089844 L 624.945312 499.949219 L 562.433594 499.949219"/><path fill="#567CC7" d="M 624.917969 479.109375 L 624.917969 499.929688 L 562.433594 499.929688 L 562.433594 479.109375 L 624.917969 479.109375"/><path fill="#567CC7" d="M 187.5 333.3125 L 187.476562 83.324219 L 562.433594 83.308594 L 562.457031 333.3125 L 187.5 333.3125"/><path fill="#567CC7" d="M 562.433594 333.296875 L 187.5 333.296875 L 187.5 83.324219 L 562.433594 83.324219 L 562.433594 333.296875"/><path fill="#939494" d="M 83.351562 604.105469 L 83.324219 562.417969 L 666.582031 562.390625 L 666.609375 583.257812 L 104.175781 583.28125 L 104.191406 604.105469 L 83.351562 604.105469"/><path fill="#939494" d="M 666.582031 562.417969 L 666.582031 583.257812 L 104.175781 583.257812 L 104.175781 604.078125 L 83.351562 604.078125 L 83.351562 562.417969 L 666.582031 562.417969"/><path fill="#939494" d="M 479.109375 166.675781 L 479.082031 145.8125 L 499.949219 145.796875 L 499.972656 166.675781 L 479.109375 166.675781"/><path fill="#939494" d="M 499.949219 166.660156 L 479.109375 166.660156 L 479.109375 145.8125 L 499.949219 145.8125 L 499.949219 166.660156"/><path fill="#939494" d="M 83.351562 541.617188 L 83.324219 458.269531 L 666.582031 458.242188 L 666.609375 479.109375 L 104.175781 479.132812 L 104.191406 541.617188 L 83.351562 541.617188"/><path fill="#939494" d="M 666.582031 458.269531 L 666.582031 479.109375 L 104.175781 479.109375 L 104.175781 541.59375 L 83.351562 541.59375 L 83.351562 458.269531 L 666.582031 458.269531"/><path fill="#939494" d="M 437.460938 166.675781 L 437.445312 145.8125 L 458.285156 145.796875 L 458.308594 166.675781 L 437.460938 166.675781"/><path fill="#939494" d="M 458.285156 145.8125 L 458.285156 166.660156 L 437.460938 166.660156 L 437.460938 145.8125 L 458.285156 145.8125"/><path fill="#939494" d="M 458.285156 187.5 L 458.257812 166.660156 L 479.109375 166.636719 L 479.125 187.5 L 458.285156 187.5"/><path fill="#939494" d="M 458.285156 187.476562 L 458.285156 166.660156 L 479.109375 166.660156 L 479.109375 187.476562 L 458.285156 187.476562"/><path fill="#939494" d="M 416.621094 187.5 L 416.597656 166.660156 L 437.460938 166.636719 L 437.484375 187.5 L 416.621094 187.5"/><path fill="#939494" d="M 416.621094 166.660156 L 437.460938 166.660156 L 437.460938 187.476562 L 416.621094 187.476562 L 416.621094 166.660156"/><path fill="#939494" d="M 395.796875 166.675781 L 395.773438 145.8125 L 416.621094 145.796875 L 416.644531 166.675781 L 395.796875 166.675781"/><path fill="#939494" d="M 416.621094 145.8125 L 416.621094 166.660156 L 395.796875 166.660156 L 395.796875 145.8125 L 416.621094 145.8125"/><path fill="#939494" d="M 270.808594 166.675781 L 270.785156 145.8125 L 291.648438 145.796875 L 291.664062 166.675781 L 270.808594 166.675781"/><path fill="#939494" d="M 291.648438 145.8125 L 291.648438 166.660156 L 270.808594 166.660156 L 270.808594 145.8125 L 291.648438 145.8125"/><path fill="#939494" d="M 20.863281 729.070312 L 20.839844 687.40625 L 41.6875 687.390625 L 41.703125 729.070312 L 20.863281 729.070312"/><path fill="#939494" d="M 20.863281 687.40625 L 41.6875 687.40625 L 41.6875 729.050781 L 20.863281 729.050781 L 20.863281 687.40625"/><path fill="#939494" d="M 62.527344 645.769531 L 62.503906 604.078125 L 83.351562 604.0625 L 83.367188 645.769531 L 62.527344 645.769531"/><path fill="#939494" d="M 62.527344 604.078125 L 83.351562 604.078125 L 83.351562 645.742188 L 62.527344 645.742188 L 62.527344 604.078125"/><path fill="#939494" d="M 41.6875 687.429688 L 41.664062 645.742188 L 62.527344 645.726562 L 62.550781 687.429688 L 41.6875 687.429688"/><path fill="#939494" d="M 41.6875 645.742188 L 62.527344 645.742188 L 62.527344 687.40625 L 41.6875 687.40625 L 41.6875 645.742188"/><path fill="#939494" d="M 125.015625 416.621094 L 124.988281 20.839844 L 624.917969 20.824219 L 624.945312 41.664062 L 145.835938 41.6875 L 145.855469 416.621094 L 125.015625 416.621094"/><path fill="#939494" d="M 145.835938 416.605469 L 125.015625 416.605469 L 125.015625 20.839844 L 624.917969 20.839844 L 624.917969 41.664062 L 145.835938 41.664062 L 145.835938 416.605469"/><path fill="#939494" d="M 333.3125 187.5 L 333.296875 166.660156 L 354.136719 166.636719 L 354.152344 187.5 L 333.3125 187.5"/><path fill="#939494" d="M 333.3125 166.660156 L 354.136719 166.660156 L 354.136719 187.476562 L 333.3125 187.476562 L 333.3125 166.660156"/><path fill="#939494" d="M 354.136719 166.675781 L 354.117188 145.8125 L 374.957031 145.796875 L 374.976562 166.675781 L 354.136719 166.675781"/><path fill="#939494" d="M 374.957031 145.8125 L 374.957031 166.660156 L 354.136719 166.660156 L 354.136719 145.8125 L 374.957031 145.8125"/><path fill="#939494" d="M 374.957031 187.5 L 374.933594 166.660156 L 395.796875 166.636719 L 395.824219 187.5 L 374.957031 187.5"/><path fill="#939494" d="M 374.957031 166.660156 L 395.796875 166.660156 L 395.796875 187.476562 L 374.957031 187.476562 L 374.957031 166.660156"/><path fill="#939494" d="M 291.648438 187.5 L 291.632812 166.660156 L 312.472656 166.636719 L 312.488281 187.5 L 291.648438 187.5"/><path fill="#939494" d="M 291.648438 166.660156 L 312.472656 166.660156 L 312.472656 187.476562 L 291.648438 187.476562 L 291.648438 166.660156"/><path fill="#939494" d="M 312.472656 166.675781 L 312.449219 145.8125 L 333.3125 145.796875 L 333.335938 166.675781 L 312.472656 166.675781"/><path fill="#939494" d="M 333.3125 145.8125 L 333.3125 166.660156 L 312.472656 166.660156 L 312.472656 145.8125 L 333.3125 145.8125"/></svg>