<svg xmlns="http://www.w3.org/2000/svg" width="750" viewBox="0 0 750 750" height="750" version="1.0"><defs><clipPath id="a"><path d="M 143 658 L 260 658 L 260 696.9375 L 143 696.9375 Z M 143 658"/></clipPath><clipPath id="b"><path d="M 307 53.4375 L 365 53.4375 L 365 112 L 307 112 Z M 307 53.4375"/></clipPath><clipPath id="c"><path d="M 18 53.4375 L 77 53.4375 L 77 112 L 18 112 Z M 18 53.4375"/></clipPath><clipPath id="d"><path d="M 374 639 L 432 639 L 432 696.9375 L 374 696.9375 Z M 374 639"/></clipPath></defs><path fill="#F68712" d="M 268.710938 168.78125 L 268.710938 303.242188 L 287.917969 303.242188 L 287.917969 130.359375 L 268.710938 130.359375 L 268.710938 168.78125"/><path fill="#F68712" d="M 249.515625 322.457031 L 268.710938 322.457031 L 268.710938 303.242188 L 249.515625 303.242188 L 249.515625 322.457031"/><path fill="#F68712" d="M 268.710938 130.359375 L 268.710938 111.152344 L 249.515625 111.152344 L 249.515625 130.359375 L 268.710938 130.359375"/><path fill="#F68712" d="M 230.289062 341.664062 L 249.515625 341.664062 L 249.515625 322.457031 L 230.289062 322.457031 L 230.289062 341.664062"/><path fill="#F68712" d="M 249.515625 91.945312 L 230.289062 91.945312 L 230.289062 111.152344 L 249.515625 111.152344 L 249.515625 91.945312"/><path fill="#F68712" d="M 172.660156 303.242188 L 211.082031 303.242188 L 211.082031 284.035156 L 230.289062 284.035156 L 230.289062 149.574219 L 211.082031 149.574219 L 211.082031 130.359375 L 153.464844 130.359375 L 153.464844 149.574219 L 134.257812 149.574219 L 134.257812 303.242188 L 172.660156 303.242188"/><path fill="#F68712" d="M 595.246094 351.269531 L 595.246094 524.15625 L 614.441406 524.15625 L 614.441406 351.269531 L 595.246094 351.269531"/><path fill="#F68712" d="M 576.050781 543.363281 L 595.246094 543.363281 L 595.246094 524.15625 L 576.050781 524.15625 L 576.050781 543.363281"/><path fill="#F68712" d="M 576.050781 332.054688 L 576.050781 351.269531 L 595.246094 351.269531 L 595.246094 332.054688 L 576.050781 332.054688"/><path fill="#F68712" d="M 556.8125 562.566406 L 576.050781 562.566406 L 576.050781 543.363281 L 556.8125 543.363281 L 556.8125 562.566406"/><path fill="#F68712" d="M 556.8125 312.851562 L 556.8125 332.054688 L 576.050781 332.054688 L 576.050781 312.851562 L 556.8125 312.851562"/><path fill="#F68712" d="M 556.8125 485.734375 L 556.8125 370.476562 L 537.617188 370.476562 L 537.617188 351.269531 L 479.988281 351.269531 L 479.988281 370.476562 L 460.792969 370.476562 L 460.792969 524.15625 L 537.617188 524.15625 L 537.617188 504.941406 L 556.8125 504.941406 L 556.8125 485.734375"/><path fill="#F68712" d="M 278.316406 485.734375 L 278.316406 639.410156 L 297.511719 639.410156 L 297.511719 466.527344 L 278.316406 466.527344 L 278.316406 485.734375"/><path fill="#F68712" d="M 259.121094 658.617188 L 278.316406 658.617188 L 278.316406 639.410156 L 259.121094 639.410156 L 259.121094 658.617188"/><path fill="#F68712" d="M 259.121094 447.3125 L 259.121094 466.527344 L 278.316406 466.527344 L 278.316406 447.3125 L 259.121094 447.3125"/><path fill="#F68712" d="M 239.878906 677.832031 L 259.121094 677.832031 L 259.121094 658.617188 L 239.878906 658.617188 L 239.878906 677.832031"/><path fill="#F68712" d="M 239.878906 428.105469 L 239.878906 447.3125 L 259.121094 447.3125 L 259.121094 428.105469 L 239.878906 428.105469"/><path fill="#F68712" d="M 239.878906 600.988281 L 239.878906 485.734375 L 220.6875 485.734375 L 220.6875 466.527344 L 163.058594 466.527344 L 163.058594 485.734375 L 143.863281 485.734375 L 143.863281 639.410156 L 220.6875 639.410156 L 220.6875 620.195312 L 239.878906 620.195312 L 239.878906 600.988281"/><path fill="#D76F1B" d="M 191.886719 130.359375 L 211.082031 130.359375 L 211.082031 111.152344 L 153.464844 111.152344 L 153.464844 130.359375 L 191.886719 130.359375"/><path fill="#D76F1B" d="M 153.464844 322.457031 L 191.886719 322.457031 L 191.886719 303.242188 L 134.257812 303.242188 L 134.257812 322.457031 L 153.464844 322.457031"/><path fill="#D76F1B" d="M 153.464844 130.359375 L 134.257812 130.359375 L 134.257812 149.574219 L 153.464844 149.574219 L 153.464844 130.359375"/><path fill="#D76F1B" d="M 134.257812 284.035156 L 134.257812 149.574219 L 115.03125 149.574219 L 115.03125 303.242188 L 134.257812 303.242188 L 134.257812 284.035156"/><path fill="#D76F1B" d="M 518.421875 332.054688 L 479.988281 332.054688 L 479.988281 351.269531 L 537.617188 351.269531 L 537.617188 332.054688 L 518.421875 332.054688"/><path fill="#D76F1B" d="M 479.988281 543.363281 L 518.421875 543.363281 L 518.421875 524.15625 L 460.792969 524.15625 L 460.792969 543.363281 L 479.988281 543.363281"/><path fill="#D76F1B" d="M 460.792969 370.476562 L 479.988281 370.476562 L 479.988281 351.269531 L 460.792969 351.269531 L 460.792969 370.476562"/><path fill="#D76F1B" d="M 441.566406 389.683594 L 441.566406 524.15625 L 460.792969 524.15625 L 460.792969 370.476562 L 441.566406 370.476562 L 441.566406 389.683594"/><path fill="#D76F1B" d="M 182.261719 447.3125 L 163.058594 447.3125 L 163.058594 466.527344 L 220.6875 466.527344 L 220.6875 447.3125 L 182.261719 447.3125"/><path fill="#D76F1B" d="M 163.058594 658.617188 L 201.492188 658.617188 L 201.492188 639.410156 L 143.863281 639.410156 L 143.863281 658.617188 L 163.058594 658.617188"/><path fill="#D76F1B" d="M 143.863281 485.734375 L 163.058594 485.734375 L 163.058594 466.527344 L 143.863281 466.527344 L 143.863281 485.734375"/><path fill="#D76F1B" d="M 124.632812 504.941406 L 124.632812 639.410156 L 143.863281 639.410156 L 143.863281 485.734375 L 124.632812 485.734375 L 124.632812 504.941406"/><path fill="#393536" d="M 287.917969 168.78125 L 287.917969 303.242188 L 307.144531 303.242188 L 307.144531 130.359375 L 287.917969 130.359375 L 287.917969 168.78125"/><path fill="#393536" d="M 268.710938 322.457031 L 287.917969 322.457031 L 287.917969 303.242188 L 268.710938 303.242188 L 268.710938 322.457031"/><path fill="#393536" d="M 287.917969 130.359375 L 287.917969 111.152344 L 268.710938 111.152344 L 268.710938 130.359375 L 287.917969 130.359375"/><path fill="#393536" d="M 249.515625 341.664062 L 268.710938 341.664062 L 268.710938 322.457031 L 249.515625 322.457031 L 249.515625 341.664062"/><path fill="#393536" d="M 268.710938 284.035156 L 268.710938 130.359375 L 249.515625 130.359375 L 249.515625 303.242188 L 268.710938 303.242188 L 268.710938 284.035156"/><path fill="#393536" d="M 268.710938 111.152344 L 268.710938 91.945312 L 249.515625 91.945312 L 249.515625 111.152344 L 268.710938 111.152344"/><path fill="#393536" d="M 249.515625 303.242188 L 230.289062 303.242188 L 230.289062 322.457031 L 249.515625 322.457031 L 249.515625 303.242188"/><path fill="#393536" d="M 230.289062 111.152344 L 230.289062 130.359375 L 249.515625 130.359375 L 249.515625 111.152344 L 230.289062 111.152344"/><path fill="#393536" d="M 230.289062 322.457031 L 211.082031 322.457031 L 211.082031 341.664062 L 134.257812 341.664062 L 134.257812 360.871094 L 249.515625 360.871094 L 249.515625 341.664062 L 230.289062 341.664062 L 230.289062 322.457031"/><path fill="#393536" d="M 172.660156 91.945312 L 211.082031 91.945312 L 211.082031 111.152344 L 230.289062 111.152344 L 230.289062 91.945312 L 249.515625 91.945312 L 249.515625 72.730469 L 134.257812 72.730469 L 134.257812 91.945312 L 172.660156 91.945312"/><path fill="#393536" d="M 115.03125 322.457031 L 115.03125 341.664062 L 134.257812 341.664062 L 134.257812 322.457031 L 115.03125 322.457031"/><path fill="#393536" d="M 134.257812 91.945312 L 115.03125 91.945312 L 115.03125 111.152344 L 134.257812 111.152344 L 134.257812 91.945312"/><path fill="#393536" d="M 95.835938 303.242188 L 95.835938 322.457031 L 115.03125 322.457031 L 115.03125 303.242188 L 95.835938 303.242188"/><path fill="#393536" d="M 115.03125 111.152344 L 95.835938 111.152344 L 95.835938 130.359375 L 115.03125 130.359375 L 115.03125 111.152344"/><path fill="#393536" d="M 95.835938 284.035156 L 95.835938 130.359375 L 76.605469 130.359375 L 76.605469 303.242188 L 95.835938 303.242188 L 95.835938 284.035156"/><path fill="#393536" d="M 614.441406 351.269531 L 614.441406 524.15625 L 633.671875 524.15625 L 633.671875 351.269531 L 614.441406 351.269531"/><path fill="#393536" d="M 595.246094 543.363281 L 614.441406 543.363281 L 614.441406 524.15625 L 595.246094 524.15625 L 595.246094 543.363281"/><path fill="#393536" d="M 614.441406 351.269531 L 614.441406 332.054688 L 595.246094 332.054688 L 595.246094 351.269531 L 614.441406 351.269531"/><path fill="#393536" d="M 576.050781 562.566406 L 595.246094 562.566406 L 595.246094 543.363281 L 576.050781 543.363281 L 576.050781 562.566406"/><path fill="#393536" d="M 576.050781 370.476562 L 576.050781 524.15625 L 595.246094 524.15625 L 595.246094 351.269531 L 576.050781 351.269531 L 576.050781 370.476562"/><path fill="#393536" d="M 595.246094 332.054688 L 595.246094 312.851562 L 576.050781 312.851562 L 576.050781 332.054688 L 595.246094 332.054688"/><path fill="#393536" d="M 556.8125 543.363281 L 576.050781 543.363281 L 576.050781 524.15625 L 556.8125 524.15625 L 556.8125 543.363281"/><path fill="#393536" d="M 556.8125 332.054688 L 556.8125 351.269531 L 576.050781 351.269531 L 576.050781 332.054688 L 556.8125 332.054688"/><path fill="#393536" d="M 556.8125 543.363281 L 537.617188 543.363281 L 537.617188 562.566406 L 460.792969 562.566406 L 460.792969 581.785156 L 576.050781 581.785156 L 576.050781 562.566406 L 556.8125 562.566406 L 556.8125 543.363281"/><path fill="#393536" d="M 499.195312 312.851562 L 537.617188 312.851562 L 537.617188 332.054688 L 556.8125 332.054688 L 556.8125 312.851562 L 576.050781 312.851562 L 576.050781 293.644531 L 460.792969 293.644531 L 460.792969 312.851562 L 499.195312 312.851562"/><path fill="#393536" d="M 441.566406 543.363281 L 441.566406 562.566406 L 460.792969 562.566406 L 460.792969 543.363281 L 441.566406 543.363281"/><path fill="#393536" d="M 460.792969 312.851562 L 441.566406 312.851562 L 441.566406 332.054688 L 460.792969 332.054688 L 460.792969 312.851562"/><path fill="#393536" d="M 422.359375 524.15625 L 422.359375 543.363281 L 441.566406 543.363281 L 441.566406 524.15625 L 422.359375 524.15625"/><path fill="#393536" d="M 441.566406 332.054688 L 422.359375 332.054688 L 422.359375 351.269531 L 441.566406 351.269531 L 441.566406 332.054688"/><path fill="#393536" d="M 422.359375 485.734375 L 422.359375 351.269531 L 403.132812 351.269531 L 403.132812 524.15625 L 422.359375 524.15625 L 422.359375 485.734375"/><path fill="#393536" d="M 297.511719 485.734375 L 297.511719 639.410156 L 316.738281 639.410156 L 316.738281 466.527344 L 297.511719 466.527344 L 297.511719 485.734375"/><path fill="#393536" d="M 278.316406 658.617188 L 297.511719 658.617188 L 297.511719 639.410156 L 278.316406 639.410156 L 278.316406 658.617188"/><path fill="#393536" d="M 297.511719 466.527344 L 297.511719 447.3125 L 278.316406 447.3125 L 278.316406 466.527344 L 297.511719 466.527344"/><path fill="#393536" d="M 259.121094 677.832031 L 278.316406 677.832031 L 278.316406 658.617188 L 259.121094 658.617188 L 259.121094 677.832031"/><path fill="#393536" d="M 259.121094 485.734375 L 259.121094 639.410156 L 278.316406 639.410156 L 278.316406 466.527344 L 259.121094 466.527344 L 259.121094 485.734375"/><path fill="#393536" d="M 278.316406 447.3125 L 278.316406 428.105469 L 259.121094 428.105469 L 259.121094 447.3125 L 278.316406 447.3125"/><path fill="#393536" d="M 239.878906 658.617188 L 259.121094 658.617188 L 259.121094 639.410156 L 239.878906 639.410156 L 239.878906 658.617188"/><path fill="#393536" d="M 239.878906 447.3125 L 239.878906 466.527344 L 259.121094 466.527344 L 259.121094 447.3125 L 239.878906 447.3125"/><g clip-path="url(#a)"><path fill="#393536" d="M 239.878906 658.617188 L 220.6875 658.617188 L 220.6875 677.832031 L 143.863281 677.832031 L 143.863281 697.039062 L 259.121094 697.039062 L 259.121094 677.832031 L 239.878906 677.832031 L 239.878906 658.617188"/></g><path fill="#393536" d="M 182.261719 428.105469 L 220.6875 428.105469 L 220.6875 447.3125 L 239.878906 447.3125 L 239.878906 428.105469 L 259.121094 428.105469 L 259.121094 408.898438 L 143.863281 408.898438 L 143.863281 428.105469 L 182.261719 428.105469"/><path fill="#393536" d="M 124.632812 658.617188 L 124.632812 677.832031 L 143.863281 677.832031 L 143.863281 658.617188 L 124.632812 658.617188"/><path fill="#393536" d="M 143.863281 428.105469 L 124.632812 428.105469 L 124.632812 447.3125 L 143.863281 447.3125 L 143.863281 428.105469"/><path fill="#393536" d="M 105.429688 639.410156 L 105.429688 658.617188 L 124.632812 658.617188 L 124.632812 639.410156 L 105.429688 639.410156"/><path fill="#393536" d="M 124.632812 447.3125 L 105.429688 447.3125 L 105.429688 466.527344 L 124.632812 466.527344 L 124.632812 447.3125"/><path fill="#393536" d="M 105.429688 600.988281 L 105.429688 466.527344 L 86.199219 466.527344 L 86.199219 639.410156 L 105.429688 639.410156 L 105.429688 600.988281"/><g clip-path="url(#b)"><path fill="#F9A72B" d="M 326.339844 111.152344 L 345.570312 111.152344 L 345.570312 91.945312 L 364.765625 91.945312 L 364.765625 72.730469 L 345.570312 72.730469 L 345.570312 53.523438 L 326.339844 53.523438 L 326.339844 72.730469 L 307.144531 72.730469 L 307.144531 91.945312 L 326.339844 91.945312 L 326.339844 111.152344"/></g><path fill="#F9A72B" d="M 211.082031 149.574219 L 230.289062 149.574219 L 230.289062 284.035156 L 211.082031 284.035156 L 211.082031 303.242188 L 191.886719 303.242188 L 191.886719 322.457031 L 134.257812 322.457031 L 134.257812 341.664062 L 211.082031 341.664062 L 211.082031 322.457031 L 230.289062 322.457031 L 230.289062 303.242188 L 249.515625 303.242188 L 249.515625 130.359375 L 230.289062 130.359375 L 230.289062 111.152344 L 211.082031 111.152344 L 211.082031 149.574219"/><path fill="#F9A72B" d="M 115.03125 303.242188 L 115.03125 322.457031 L 134.257812 322.457031 L 134.257812 303.242188 L 115.03125 303.242188"/><path fill="#F9A72B" d="M 115.03125 284.035156 L 115.03125 149.574219 L 134.257812 149.574219 L 134.257812 130.359375 L 153.464844 130.359375 L 153.464844 111.152344 L 211.082031 111.152344 L 211.082031 91.945312 L 134.257812 91.945312 L 134.257812 111.152344 L 115.03125 111.152344 L 115.03125 130.359375 L 95.835938 130.359375 L 95.835938 303.242188 L 115.03125 303.242188 L 115.03125 284.035156"/><path fill="#F9A72B" d="M 20.839844 317.882812 L 40.035156 317.882812 L 40.035156 298.675781 L 59.230469 298.675781 L 59.230469 279.460938 L 40.035156 279.460938 L 40.035156 260.253906 L 20.839844 260.253906 L 20.839844 279.460938 L 1.609375 279.460938 L 1.609375 298.675781 L 20.839844 298.675781 L 20.839844 317.882812"/><g clip-path="url(#c)"><path fill="#F9A72B" d="M 38.207031 72.730469 L 57.402344 72.730469 L 57.402344 91.945312 L 38.207031 91.945312 Z M 57.402344 111.152344 L 76.605469 111.152344 L 76.605469 53.523438 L 18.976562 53.523438 L 18.976562 111.152344 L 57.402344 111.152344"/></g><path fill="#F9A72B" d="M 729.734375 543.363281 L 729.734375 524.15625 L 710.503906 524.15625 L 710.503906 543.363281 L 691.300781 543.363281 L 691.300781 562.566406 L 710.503906 562.566406 L 710.503906 581.785156 L 729.734375 581.785156 L 729.734375 562.566406 L 748.929688 562.566406 L 748.929688 543.363281 L 729.734375 543.363281"/><path fill="#F9A72B" d="M 691.300781 293.644531 L 672.105469 293.644531 L 672.105469 274.429688 L 652.875 274.429688 L 652.875 293.644531 L 633.671875 293.644531 L 633.671875 312.851562 L 652.875 312.851562 L 652.875 332.054688 L 672.105469 332.054688 L 672.105469 312.851562 L 691.300781 312.851562 L 691.300781 293.644531"/><path fill="#F9A72B" d="M 556.8125 332.054688 L 537.617188 332.054688 L 537.617188 370.476562 L 556.8125 370.476562 L 556.8125 504.941406 L 537.617188 504.941406 L 537.617188 524.15625 L 518.421875 524.15625 L 518.421875 543.363281 L 460.792969 543.363281 L 460.792969 562.566406 L 537.617188 562.566406 L 537.617188 543.363281 L 556.8125 543.363281 L 556.8125 524.15625 L 576.050781 524.15625 L 576.050781 351.269531 L 556.8125 351.269531 L 556.8125 332.054688"/><path fill="#F9A72B" d="M 441.566406 524.15625 L 441.566406 543.363281 L 460.792969 543.363281 L 460.792969 524.15625 L 441.566406 524.15625"/><path fill="#F9A72B" d="M 441.566406 485.734375 L 441.566406 370.476562 L 460.792969 370.476562 L 460.792969 351.269531 L 479.988281 351.269531 L 479.988281 332.054688 L 537.617188 332.054688 L 537.617188 312.851562 L 460.792969 312.851562 L 460.792969 332.054688 L 441.566406 332.054688 L 441.566406 351.269531 L 422.359375 351.269531 L 422.359375 524.15625 L 441.566406 524.15625 L 441.566406 485.734375"/><path fill="#F9A72B" d="M 383.9375 293.644531 L 383.9375 312.851562 L 364.742188 312.851562 L 364.742188 293.644531 Z M 345.511719 274.429688 L 345.511719 332.054688 L 403.132812 332.054688 L 403.132812 274.429688 L 345.511719 274.429688"/><g clip-path="url(#d)"><path fill="#F9A72B" d="M 412.800781 639.410156 L 393.5625 639.410156 L 393.5625 658.617188 L 374.367188 658.617188 L 374.367188 677.832031 L 393.5625 677.832031 L 393.5625 697.039062 L 412.800781 697.039062 L 412.800781 677.832031 L 431.996094 677.832031 L 431.996094 658.617188 L 412.800781 658.617188 L 412.800781 639.410156"/></g><path fill="#F9A72B" d="M 374.367188 408.898438 L 355.171875 408.898438 L 355.171875 389.683594 L 335.945312 389.683594 L 335.945312 408.898438 L 316.738281 408.898438 L 316.738281 428.105469 L 335.945312 428.105469 L 335.945312 447.3125 L 355.171875 447.3125 L 355.171875 428.105469 L 374.367188 428.105469 L 374.367188 408.898438"/><path fill="#F9A72B" d="M 239.878906 447.3125 L 220.6875 447.3125 L 220.6875 485.734375 L 239.878906 485.734375 L 239.878906 620.195312 L 220.6875 620.195312 L 220.6875 639.410156 L 201.492188 639.410156 L 201.492188 658.617188 L 143.863281 658.617188 L 143.863281 677.832031 L 220.6875 677.832031 L 220.6875 658.617188 L 239.878906 658.617188 L 239.878906 639.410156 L 259.121094 639.410156 L 259.121094 466.527344 L 239.878906 466.527344 L 239.878906 447.3125"/><path fill="#F9A72B" d="M 124.632812 639.410156 L 124.632812 658.617188 L 143.863281 658.617188 L 143.863281 639.410156 L 124.632812 639.410156"/><path fill="#F9A72B" d="M 124.632812 600.988281 L 124.632812 485.734375 L 143.863281 485.734375 L 143.863281 466.527344 L 163.058594 466.527344 L 163.058594 447.3125 L 220.6875 447.3125 L 220.6875 428.105469 L 143.863281 428.105469 L 143.863281 447.3125 L 124.632812 447.3125 L 124.632812 466.527344 L 105.429688 466.527344 L 105.429688 639.410156 L 124.632812 639.410156 L 124.632812 600.988281"/><path fill="#F9A72B" d="M 39.222656 600.988281 L 20.027344 600.988281 L 20.027344 620.195312 L 0.789062 620.195312 L 0.789062 639.410156 L 20.027344 639.410156 L 20.027344 658.617188 L 39.222656 658.617188 L 39.222656 639.410156 L 58.417969 639.410156 L 58.417969 620.195312 L 39.222656 620.195312 L 39.222656 600.988281"/><path fill="#F9A72B" d="M 67.003906 428.105469 L 47.808594 428.105469 L 47.808594 408.898438 L 67.003906 408.898438 Z M 47.808594 389.683594 L 28.570312 389.683594 L 28.570312 447.3125 L 86.199219 447.3125 L 86.199219 389.683594 L 47.808594 389.683594"/></svg>