<svg xmlns="http://www.w3.org/2000/svg" width="750" viewBox="0 0 750 750" height="750" version="1.0"><defs><clipPath id="a"><path d="M 68 51.5625 L 682 51.5625 L 682 698.8125 L 68 698.8125 Z M 68 51.5625"/></clipPath><clipPath id="b"><path d="M 0 494 L 393 494 L 393 698.8125 L 0 698.8125 Z M 0 494"/></clipPath><clipPath id="c"><path d="M 647 664 L 682 664 L 682 698.8125 L 647 698.8125 Z M 647 664"/></clipPath></defs><g clip-path="url(#a)"><path fill="#90A4AE" d="M 681.414062 324.089844 L 630.34375 324.089844 L 630.34375 51.5625 L 579.277344 51.5625 L 579.277344 102.660156 L 528.207031 102.660156 L 528.207031 153.761719 L 477.136719 153.761719 L 477.136719 204.859375 L 272.863281 204.859375 L 272.863281 153.761719 L 221.792969 153.761719 L 221.792969 102.660156 L 170.722656 102.660156 L 170.722656 51.5625 L 119.65625 51.5625 L 119.65625 324.089844 L 68.585938 324.089844 L 68.585938 528.484375 L 119.65625 528.484375 L 119.65625 579.582031 L 170.722656 579.582031 L 170.722656 630.679688 L 272.863281 630.679688 L 272.863281 698.8125 L 477.136719 698.8125 L 477.136719 630.679688 L 579.277344 630.679688 L 579.277344 579.582031 L 630.34375 579.582031 L 630.34375 528.484375 L 681.414062 528.484375 Z M 681.414062 324.089844"/></g><path fill="#455A64" d="M 272.863281 204.859375 L 306.90625 204.859375 L 306.90625 290.023438 L 272.863281 290.023438 Z M 272.863281 204.859375"/><path fill="#CFD8DC" d="M 153.699219 136.726562 L 187.746094 136.726562 L 187.746094 290.023438 L 153.699219 290.023438 Z M 187.746094 187.824219 L 221.792969 187.824219 L 221.792969 255.957031 L 187.746094 255.957031 Z M 187.746094 187.824219"/><path fill="#CFD8DC" d="M 596.300781 290.023438 L 562.253906 290.023438 L 562.253906 136.726562 L 596.300781 136.726562 Z M 596.300781 290.023438"/><path fill="#CFD8DC" d="M 562.253906 255.957031 L 528.207031 255.957031 L 528.207031 187.824219 L 562.253906 187.824219 Z M 562.253906 255.957031"/><path fill="#455A64" d="M 323.929688 494.417969 L 426.070312 494.417969 L 426.070312 528.484375 L 323.929688 528.484375 Z M 323.929688 494.417969"/><path fill="#EEFF41" d="M 170.722656 375.1875 L 306.90625 375.1875 L 306.90625 409.253906 L 170.722656 409.253906 Z M 204.769531 409.253906 L 272.863281 409.253906 L 272.863281 443.320312 L 204.769531 443.320312 Z M 204.769531 341.121094 L 272.863281 341.121094 L 272.863281 375.1875 L 204.769531 375.1875 Z M 204.769531 341.121094"/><g clip-path="url(#b)"><path fill="#455A64" d="M 357.976562 528.484375 L 392.023438 528.484375 L 392.023438 596.613281 L 357.976562 596.613281 Z M 323.929688 596.613281 L 357.976562 596.613281 L 357.976562 630.679688 L 323.929688 630.679688 Z M 0.492188 494.417969 L 204.769531 494.417969 L 204.769531 528.484375 L 0.492188 528.484375 Z M 170.722656 562.550781 L 204.769531 562.550781 L 204.769531 596.613281 L 170.722656 596.613281 Z M 136.675781 596.613281 L 170.722656 596.613281 L 170.722656 630.679688 L 136.675781 630.679688 Z M 102.632812 630.679688 L 136.675781 630.679688 L 136.675781 664.746094 L 102.632812 664.746094 Z M 68.585938 664.746094 L 102.632812 664.746094 L 102.632812 698.8125 L 68.585938 698.8125 Z M 68.585938 664.746094"/></g><path fill="#455A64" d="M 749.507812 528.484375 L 545.230469 528.484375 L 545.230469 494.417969 L 749.507812 494.417969 Z M 749.507812 528.484375"/><path fill="#455A64" d="M 579.277344 596.613281 L 545.230469 596.613281 L 545.230469 562.550781 L 579.277344 562.550781 Z M 579.277344 596.613281"/><path fill="#455A64" d="M 613.324219 630.679688 L 579.277344 630.679688 L 579.277344 596.613281 L 613.324219 596.613281 Z M 613.324219 630.679688"/><path fill="#455A64" d="M 647.367188 664.746094 L 613.324219 664.746094 L 613.324219 630.679688 L 647.367188 630.679688 Z M 647.367188 664.746094"/><g clip-path="url(#c)"><path fill="#455A64" d="M 681.414062 698.8125 L 647.367188 698.8125 L 647.367188 664.746094 L 681.414062 664.746094 Z M 681.414062 698.8125"/></g><path fill="#455A64" d="M 392.023438 596.613281 L 426.070312 596.613281 L 426.070312 630.679688 L 392.023438 630.679688 Z M 221.792969 630.679688 L 323.929688 630.679688 L 323.929688 664.746094 L 221.792969 664.746094 Z M 426.070312 630.679688 L 528.207031 630.679688 L 528.207031 664.746094 L 426.070312 664.746094 Z M 357.976562 204.859375 L 392.023438 204.859375 L 392.023438 290.023438 L 357.976562 290.023438 Z M 443.09375 204.859375 L 477.136719 204.859375 L 477.136719 290.023438 L 443.09375 290.023438 Z M 443.09375 204.859375"/><path d="M 221.792969 375.1875 L 255.839844 375.1875 L 255.839844 409.253906 L 221.792969 409.253906 Z M 221.792969 375.1875"/><path fill="#EEFF41" d="M 426.070312 375.1875 L 562.253906 375.1875 L 562.253906 409.253906 L 426.070312 409.253906 Z M 460.113281 409.253906 L 528.207031 409.253906 L 528.207031 443.320312 L 460.113281 443.320312 Z M 460.113281 341.121094 L 528.207031 341.121094 L 528.207031 375.1875 L 460.113281 375.1875 Z M 460.113281 341.121094"/><path d="M 477.136719 375.1875 L 511.183594 375.1875 L 511.183594 409.253906 L 477.136719 409.253906 Z M 477.136719 375.1875"/></svg>