<svg xmlns="http://www.w3.org/2000/svg" width="750" viewBox="0 0 750 750" height="750" version="1.0"><defs><clipPath id="a"><path d="M 36 29.316406 L 210 29.316406 L 210 531 L 36 531 Z M 36 29.316406"/></clipPath><clipPath id="b"><path d="M 192 29.316406 L 714 29.316406 L 714 497 L 192 497 Z M 192 29.316406"/></clipPath><clipPath id="c"><path d="M 140 530.273438 L 748.667969 530.273438 L 748.667969 720.816406 L 140 720.816406 Z M 140 530.273438"/></clipPath><clipPath id="d"><path d="M 1.417969 530.273438 L 140.925781 530.273438 L 140.925781 720.816406 L 1.417969 720.816406 Z M 1.417969 530.273438"/></clipPath></defs><path fill="#918267" d="M 644.367188 461.585938 L 644.351562 46.644531 L 679.128906 46.625 L 679.148438 461.585938 L 644.367188 461.585938"/><path fill="#918267" d="M 679.128906 46.644531 L 679.128906 461.566406 L 644.367188 461.566406 L 644.367188 46.644531 L 679.128906 46.644531"/><path fill="#3E2426" d="M 244.679688 81.214844 L 244.707031 81.214844 L 244.707031 461.566406 Z M 244.679688 81.214844"/><path fill="#3E2426" d="M 644.359375 81.1875 L 644.359375 81.214844 L 244.707031 81.214844 Z M 644.359375 81.1875"/><path fill="#3E2426" d="M 644.386719 461.59375 L 244.707031 461.59375 L 244.707031 81.214844 L 644.359375 81.214844 L 644.386719 461.59375"/><path fill="#918267" d="M 522.746094 617.1875 L 522.71875 582.597656 L 679.128906 582.570312 L 679.148438 617.1875 L 522.746094 617.1875"/><path fill="#918267" d="M 679.128906 582.597656 L 679.128906 617.160156 L 522.746094 617.160156 L 522.746094 582.597656 L 679.128906 582.597656"/><path fill="#918267" d="M 487.988281 669.058594 L 487.96875 634.449219 L 679.128906 634.421875 L 679.148438 669.058594 L 487.988281 669.058594"/><path fill="#918267" d="M 679.128906 634.449219 L 679.128906 669.039062 L 487.988281 669.039062 L 487.988281 634.449219 L 679.128906 634.449219"/><path fill="#918267" d="M 348.980469 669.058594 L 348.953125 634.449219 L 383.742188 634.421875 L 383.757812 669.058594 L 348.980469 669.058594"/><path fill="#918267" d="M 383.742188 634.449219 L 383.742188 669.039062 L 348.980469 669.039062 L 348.980469 634.449219 L 383.742188 634.449219"/><path fill="#918267" d="M 348.980469 599.898438 L 348.953125 565.289062 L 383.742188 565.273438 L 383.757812 599.898438 L 348.980469 599.898438"/><path fill="#918267" d="M 383.742188 565.289062 L 383.742188 599.878906 L 348.980469 599.878906 L 348.980469 565.289062 L 383.742188 565.289062"/><path fill="#918267" d="M 314.21875 634.46875 L 314.203125 599.878906 L 348.980469 599.851562 L 348.996094 634.46875 L 314.21875 634.46875"/><path fill="#918267" d="M 348.980469 599.878906 L 348.980469 634.449219 L 314.21875 634.449219 L 314.21875 599.878906 L 348.980469 599.878906"/><path fill="#918267" d="M 279.457031 669.058594 L 279.441406 634.449219 L 314.21875 634.421875 L 314.246094 669.058594 L 279.457031 669.058594"/><path fill="#918267" d="M 314.21875 634.449219 L 314.21875 669.039062 L 279.457031 669.039062 L 279.457031 634.449219 L 314.21875 634.449219"/><path fill="#918267" d="M 279.457031 599.898438 L 279.441406 565.289062 L 314.21875 565.273438 L 314.246094 599.898438 L 279.457031 599.898438"/><path fill="#918267" d="M 314.21875 565.289062 L 314.21875 599.878906 L 279.457031 599.878906 L 279.457031 565.289062 L 314.21875 565.289062"/><path fill="#C5811F" d="M 279.457031 219.554688 L 279.441406 202.246094 L 296.851562 202.21875 L 296.871094 219.554688 L 279.457031 219.554688"/><path fill="#C5811F" d="M 296.851562 219.527344 L 279.457031 219.527344 L 279.457031 202.246094 L 296.851562 202.246094 L 296.851562 219.527344"/><path fill="#C5811F" d="M 296.851562 184.964844 L 296.824219 167.65625 L 401.109375 167.636719 L 401.125 184.964844 L 296.851562 184.964844"/><path fill="#C5811F" d="M 296.851562 184.9375 L 296.851562 167.65625 L 401.109375 167.65625 L 401.109375 184.9375 L 296.851562 184.9375"/><path fill="#C5811F" d="M 314.21875 219.554688 L 314.203125 202.246094 L 348.980469 202.21875 L 348.996094 219.554688 L 314.21875 219.554688"/><path fill="#C5811F" d="M 348.980469 202.246094 L 348.980469 219.527344 L 314.21875 219.527344 L 314.21875 202.246094 L 348.980469 202.246094"/><path fill="#C5811F" d="M 401.109375 219.554688 L 401.082031 202.246094 L 522.746094 202.21875 L 522.773438 219.554688 L 401.109375 219.554688"/><path fill="#C5811F" d="M 401.109375 202.246094 L 522.746094 202.246094 L 522.746094 219.527344 L 401.109375 219.527344 L 401.109375 202.246094"/><path fill="#C5811F" d="M 435.859375 271.421875 L 435.839844 254.097656 L 314.21875 254.125 L 314.203125 236.816406 L 453.234375 236.789062 L 453.253906 254.097656 L 557.5 254.078125 L 557.527344 271.421875 L 435.859375 271.421875"/><path fill="#C5811F" d="M 314.21875 254.097656 L 314.21875 236.816406 L 453.234375 236.816406 L 453.234375 254.097656 L 557.5 254.097656 L 557.5 271.394531 L 435.859375 271.394531 L 435.859375 254.097656 L 314.21875 254.097656"/><path fill="#C5811F" d="M 470.621094 323.273438 L 470.59375 305.96875 L 487.988281 305.949219 L 488.011719 323.273438 L 470.621094 323.273438"/><path fill="#C5811F" d="M 470.621094 305.96875 L 487.988281 305.96875 L 487.988281 323.25 L 470.621094 323.25 L 470.621094 305.96875"/><path fill="#C5811F" d="M 487.988281 305.992188 L 487.96875 288.6875 L 505.363281 288.660156 L 505.378906 305.992188 L 487.988281 305.992188"/><path fill="#C5811F" d="M 505.363281 288.6875 L 505.363281 305.96875 L 487.988281 305.96875 L 487.988281 288.6875 L 505.363281 288.6875"/><path fill="#C5811F" d="M 522.746094 305.992188 L 522.71875 288.6875 L 540.113281 288.660156 L 540.140625 305.992188 L 522.746094 305.992188"/><path fill="#C5811F" d="M 540.113281 288.6875 L 540.113281 305.96875 L 522.746094 305.96875 L 522.746094 288.6875 L 540.113281 288.6875"/><path fill="#C5811F" d="M 540.113281 323.273438 L 540.097656 305.96875 L 557.5 305.949219 L 557.527344 323.273438 L 540.113281 323.273438"/><path fill="#C5811F" d="M 540.113281 305.96875 L 557.5 305.96875 L 557.5 323.25 L 540.113281 323.25 L 540.113281 305.96875"/><path fill="#C5811F" d="M 366.347656 219.554688 L 366.328125 202.246094 L 383.742188 202.21875 L 383.757812 219.554688 L 366.347656 219.554688"/><path fill="#C5811F" d="M 366.347656 202.246094 L 383.742188 202.246094 L 383.742188 219.527344 L 366.347656 219.527344 L 366.347656 202.246094"/><path fill="#C5811F" d="M 557.5 219.554688 L 557.480469 202.246094 L 574.875 202.21875 L 574.890625 219.554688 L 557.5 219.554688"/><path fill="#C5811F" d="M 557.5 202.246094 L 574.875 202.246094 L 574.875 219.527344 L 557.5 219.527344 L 557.5 202.246094"/><path fill="#C5811F" d="M 453.234375 184.964844 L 453.207031 167.65625 L 592.242188 167.636719 L 592.269531 184.964844 L 453.234375 184.964844"/><path fill="#C5811F" d="M 592.242188 184.9375 L 453.234375 184.9375 L 453.234375 167.65625 L 592.242188 167.65625 L 592.242188 184.9375"/><path fill="#C5811F" d="M 609.625 496.15625 L 609.609375 461.566406 L 644.367188 461.542969 L 644.394531 496.15625 L 609.625 496.15625"/><path fill="#C5811F" d="M 644.367188 461.566406 L 644.367188 496.140625 L 609.625 496.140625 L 609.625 461.566406 L 644.367188 461.566406"/><path fill="#C5811F" d="M 418.472656 305.992188 L 418.457031 288.6875 L 435.859375 288.660156 L 435.886719 305.992188 L 418.472656 305.992188"/><path fill="#C5811F" d="M 435.859375 288.6875 L 435.859375 305.96875 L 418.472656 305.96875 L 418.472656 288.6875 L 435.859375 288.6875"/><path fill="#C5811F" d="M 296.851562 305.992188 L 296.824219 288.6875 L 383.742188 288.660156 L 383.757812 305.992188 L 296.851562 305.992188"/><path fill="#C5811F" d="M 383.742188 288.6875 L 383.742188 305.96875 L 296.851562 305.96875 L 296.851562 288.6875 L 383.742188 288.6875"/><path fill="#C5811F" d="M 435.859375 323.273438 L 435.839844 305.96875 L 453.234375 305.949219 L 453.253906 323.273438 L 435.859375 323.273438"/><path fill="#C5811F" d="M 435.859375 305.96875 L 453.234375 305.96875 L 453.234375 323.25 L 435.859375 323.25 L 435.859375 305.96875"/><path fill="#C5811F" d="M 557.5 305.992188 L 557.480469 288.6875 L 574.875 288.660156 L 574.890625 305.992188 L 557.5 305.992188"/><path fill="#C5811F" d="M 557.5 288.6875 L 574.875 288.6875 L 574.875 305.96875 L 557.5 305.96875 L 557.5 288.6875"/><path fill="#C5811F" d="M 592.242188 271.421875 L 592.222656 254.097656 L 609.625 254.078125 L 609.652344 271.421875 L 592.242188 271.421875"/><path fill="#C5811F" d="M 609.625 271.394531 L 592.242188 271.394531 L 592.242188 254.097656 L 609.625 254.097656 L 609.625 271.394531"/><path fill="#C5811F" d="M 505.363281 323.273438 L 505.335938 305.96875 L 522.746094 305.949219 L 522.773438 323.273438 L 505.363281 323.273438"/><path fill="#C5811F" d="M 505.363281 305.96875 L 522.746094 305.96875 L 522.746094 323.25 L 505.363281 323.25 L 505.363281 305.96875"/><path fill="#C5811F" d="M 453.234375 305.992188 L 453.207031 288.6875 L 470.621094 288.660156 L 470.648438 305.992188 L 453.234375 305.992188"/><path fill="#C5811F" d="M 470.621094 288.6875 L 470.621094 305.96875 L 453.234375 305.96875 L 453.234375 288.6875 L 470.621094 288.6875"/><path fill="#918267" d="M 244.707031 634.46875 L 244.679688 599.878906 L 279.457031 599.851562 L 279.484375 634.46875 L 244.707031 634.46875"/><path fill="#918267" d="M 279.457031 599.878906 L 279.457031 634.449219 L 244.707031 634.449219 L 244.707031 599.878906 L 279.457031 599.878906"/><path fill="#918267" d="M 244.707031 81.234375 L 244.679688 46.644531 L 644.367188 46.625 L 644.394531 81.234375 L 244.707031 81.234375"/><path fill="#918267" d="M 644.367188 46.644531 L 644.367188 81.214844 L 244.707031 81.214844 L 244.707031 46.644531 L 644.367188 46.644531"/><path fill="#918267" d="M 209.964844 669.058594 L 209.945312 634.449219 L 244.707031 634.421875 L 244.726562 669.058594 L 209.964844 669.058594"/><path fill="#918267" d="M 244.707031 634.449219 L 244.707031 669.039062 L 209.964844 669.039062 L 209.964844 634.449219 L 244.707031 634.449219"/><path fill="#918267" d="M 209.964844 599.898438 L 209.945312 565.289062 L 244.707031 565.273438 L 244.726562 599.898438 L 209.964844 599.898438"/><path fill="#918267" d="M 244.707031 565.289062 L 244.707031 599.878906 L 209.964844 599.878906 L 209.964844 565.289062 L 244.707031 565.289062"/><path fill="#3E2426" d="M 209.964844 530.746094 L 209.945312 496.140625 L 661.753906 496.113281 L 661.78125 530.746094 L 209.964844 530.746094"/><path fill="#3E2426" d="M 661.753906 496.140625 L 661.753906 530.71875 L 209.964844 530.71875 L 209.964844 496.140625 L 661.753906 496.140625"/><path fill="#F5E5C1" d="M 209.964844 461.585938 L 209.945312 46.644531 L 244.707031 46.625 L 244.726562 461.585938 L 209.964844 461.585938"/><path fill="#F5E5C1" d="M 244.707031 46.644531 L 244.707031 461.566406 L 209.964844 461.566406 L 209.964844 46.644531 L 244.707031 46.644531"/><g clip-path="url(#a)" fill="#918267"><path d="M 53.5625 530.746094 L 53.546875 496.140625 L 36.199219 496.15625 L 36.179688 115.785156 L 53.5625 115.757812 L 53.546875 29.34375 L 192.578125 29.316406 L 192.597656 496.140625 L 209.964844 496.113281 L 209.992188 530.746094 L 53.5625 530.746094"/><path d="M 209.964844 496.140625 L 209.964844 530.71875 L 53.5625 530.71875 L 53.5625 496.140625 L 36.199219 496.140625 L 36.199219 115.785156 L 53.5625 115.785156 L 53.5625 29.34375 L 192.578125 29.34375 L 192.578125 496.140625 L 209.964844 496.140625"/></g><g clip-path="url(#b)" fill="#D2C0A1"><path d="M 644.367188 496.15625 L 644.351562 461.566406 L 679.128906 461.542969 L 679.101562 46.644531 L 209.964844 46.671875 L 209.992188 461.566406 L 609.625 461.542969 L 609.652344 496.140625 L 192.578125 496.15625 L 192.554688 29.34375 L 713.882812 29.316406 L 713.90625 496.15625 L 644.367188 496.15625"/><path d="M 713.882812 29.34375 L 713.882812 496.140625 L 644.367188 496.140625 L 644.367188 461.566406 L 679.128906 461.566406 L 679.128906 46.644531 L 209.964844 46.644531 L 209.964844 461.566406 L 609.625 461.566406 L 609.625 496.140625 L 192.578125 496.140625 L 192.578125 29.34375 L 713.882812 29.34375"/></g><g clip-path="url(#c)" fill="#D2C0A1"><path d="M 383.742188 599.851562 L 383.714844 565.289062 L 348.980469 565.316406 L 348.996094 599.851562 Z M 209.964844 565.316406 L 209.992188 599.878906 L 244.707031 599.851562 L 244.679688 565.289062 Z M 522.773438 617.160156 L 679.128906 617.140625 L 679.101562 582.597656 L 522.773438 582.617188 Z M 209.992188 669.039062 L 383.742188 669.011719 L 383.714844 634.449219 L 348.980469 634.46875 L 348.953125 599.878906 L 314.21875 599.898438 L 314.203125 565.289062 L 279.457031 565.316406 L 279.484375 599.878906 L 244.707031 599.898438 L 244.734375 634.449219 L 209.992188 634.46875 Z M 488.011719 669.039062 L 679.128906 669.011719 L 679.101562 634.449219 L 488.011719 634.46875 Z M 140.453125 720.910156 L 140.425781 530.71875 L 748.640625 530.703125 L 748.660156 720.910156 L 140.453125 720.910156"/><path d="M 679.128906 617.160156 L 522.746094 617.160156 L 522.746094 582.597656 L 679.128906 582.597656 Z M 679.128906 669.039062 L 487.988281 669.039062 L 487.988281 634.449219 L 679.128906 634.449219 Z M 383.742188 599.878906 L 348.980469 599.878906 L 348.980469 634.449219 L 383.742188 634.449219 L 383.742188 669.039062 L 209.964844 669.039062 L 209.964844 634.449219 L 244.707031 634.449219 L 244.707031 599.878906 L 209.964844 599.878906 L 209.964844 565.289062 L 244.707031 565.289062 L 244.707031 599.878906 L 279.457031 599.878906 L 279.457031 565.289062 L 314.21875 565.289062 L 314.21875 599.878906 L 348.980469 599.878906 L 348.980469 565.289062 L 383.742188 565.289062 Z M 140.453125 530.71875 L 140.453125 720.890625 L 748.640625 720.890625 L 748.640625 530.71875 L 140.453125 530.71875"/></g><path fill="#D2C0A1" d="M 314.21875 669.058594 L 314.203125 634.449219 L 348.980469 634.421875 L 348.996094 669.058594 L 314.21875 669.058594"/><path fill="#D2C0A1" d="M 348.980469 634.449219 L 348.980469 669.039062 L 314.21875 669.039062 L 314.21875 634.449219 L 348.980469 634.449219"/><path fill="#D2C0A1" d="M 244.707031 669.058594 L 244.679688 634.449219 L 279.457031 634.421875 L 279.484375 669.058594 L 244.707031 669.058594"/><path fill="#D2C0A1" d="M 279.457031 634.449219 L 279.457031 669.039062 L 244.707031 669.039062 L 244.707031 634.449219 L 279.457031 634.449219"/><path fill="#D2C0A1" d="M 279.457031 634.46875 L 279.441406 599.878906 L 314.21875 599.851562 L 314.246094 634.46875 L 279.457031 634.46875"/><path fill="#D2C0A1" d="M 314.21875 599.878906 L 314.21875 634.449219 L 279.457031 634.449219 L 279.457031 599.878906 L 314.21875 599.878906"/><path fill="#918267" d="M 18.8125 496.15625 L 18.785156 461.566406 L 1.445312 461.585938 L 1.417969 150.375 L 18.8125 150.347656 L 18.785156 115.785156 L 36.199219 115.757812 L 36.222656 496.15625 L 18.8125 496.15625"/><path fill="#918267" d="M 36.199219 115.785156 L 36.199219 496.140625 L 18.8125 496.140625 L 18.8125 461.566406 L 1.445312 461.566406 L 1.445312 150.375 L 18.8125 150.375 L 18.8125 115.785156 L 36.199219 115.785156"/><path fill="#3E2426" d="M 36.199219 496.15625 L 36.179688 115.785156 L 53.5625 115.757812 L 53.589844 496.15625 L 36.199219 496.15625"/><path fill="#3E2426" d="M 53.5625 496.140625 L 36.199219 496.140625 L 36.199219 115.785156 L 53.5625 115.785156 L 53.5625 496.140625"/><g clip-path="url(#d)" fill="#3E2426"><path d="M 1.445312 720.910156 L 1.417969 530.71875 L 140.453125 530.703125 L 140.46875 720.910156 L 1.445312 720.910156"/><path d="M 140.453125 530.71875 L 140.453125 720.890625 L 1.445312 720.890625 L 1.445312 530.71875 L 140.453125 530.71875"/></g><path fill="#3E2426" d="M 157.828125 349.1875 L 157.847656 375.152344 L 97.007812 375.152344 L 97.007812 375.128906 L 96.992188 349.1875 L 97.007812 349.1875 L 157.828125 349.160156 L 157.828125 349.1875"/><path fill="#3E2426" d="M 157.828125 297.328125 L 157.847656 323.273438 L 97.007812 323.273438 L 97.007812 323.25 L 96.992188 297.328125 L 97.007812 297.328125 L 157.828125 297.308594 L 157.828125 297.328125"/><path fill="#3E2426" d="M 157.828125 245.449219 L 157.847656 271.414062 L 97.007812 271.414062 L 97.007812 271.386719 L 96.992188 245.449219 L 97.007812 245.449219 L 157.828125 245.429688 L 157.828125 245.449219"/><path fill="#3E2426" d="M 97.007812 219.535156 L 96.992188 193.59375 L 97.007812 193.59375 L 157.828125 193.570312 L 157.828125 193.59375 L 157.847656 219.554688 L 97.007812 219.554688 L 97.007812 219.535156"/></svg>