<svg xmlns="http://www.w3.org/2000/svg" width="750" viewBox="0 0 750 750" height="750" version="1.0"><defs><clipPath id="a"><path d="M 5 0 L 745.6875 0 L 745.6875 344 L 5 344 Z M 5 0"/></clipPath></defs><path fill="#FFFFF7" d="M 153.214844 218.914062 L 182.839844 218.914062 L 182.839844 187.667969 L 153.214844 187.667969 L 153.214844 218.914062"/><path fill="#FFF" d="M 153.214844 187.667969 L 182.839844 187.667969 L 182.839844 156.410156 L 153.214844 156.410156 L 153.214844 187.667969"/><path fill="#FFF" d="M 153.214844 156.410156 L 182.839844 156.410156 L 182.839844 125.15625 L 153.214844 125.15625 L 153.214844 156.410156"/><path fill="#483F10" d="M 567.867188 93.910156 L 567.867188 187.667969 L 538.253906 187.667969 L 538.253906 250.167969 L 508.632812 250.167969 L 508.632812 281.414062 L 479.007812 281.414062 L 479.007812 312.65625 L 449.398438 312.65625 L 449.398438 343.914062 L 390.164062 343.914062 L 390.164062 375.171875 L 479.007812 375.171875 L 479.007812 343.914062 L 538.253906 343.914062 L 538.253906 312.65625 L 567.867188 312.65625 L 567.867188 250.167969 L 597.488281 250.167969 L 597.488281 93.910156 L 567.867188 93.910156"/><path fill="#FFFDF0" d="M 153.214844 125.15625 L 182.839844 125.15625 L 182.839844 93.910156 L 153.214844 93.910156 L 153.214844 125.15625"/><path fill="#FDF2C4" d="M 153.214844 93.910156 L 182.839844 93.910156 L 182.839844 62.652344 L 153.214844 62.652344 L 153.214844 93.910156"/><path fill="#9C8619" d="M 419.773438 687.675781 L 271.695312 687.675781 L 271.695312 718.917969 L 479.007812 718.917969 L 479.007812 687.675781 L 419.773438 687.675781"/><path fill="#9C8619" d="M 567.867188 31.410156 L 508.632812 31.410156 L 508.632812 125.15625 L 479.007812 125.15625 L 479.007812 156.410156 L 449.398438 156.410156 L 449.398438 187.667969 L 419.773438 187.667969 L 419.773438 218.914062 L 390.164062 218.914062 L 390.164062 250.167969 L 360.539062 250.167969 L 360.539062 281.414062 L 271.695312 281.414062 L 271.695312 312.65625 L 212.460938 312.65625 L 212.460938 343.914062 L 271.695312 343.914062 L 271.695312 375.171875 L 390.164062 375.171875 L 390.164062 343.914062 L 449.398438 343.914062 L 449.398438 312.65625 L 479.007812 312.65625 L 479.007812 281.414062 L 508.632812 281.414062 L 508.632812 250.167969 L 538.253906 250.167969 L 538.253906 187.667969 L 567.867188 187.667969 L 567.867188 93.910156 L 597.488281 93.910156 L 597.488281 31.410156 L 567.867188 31.410156"/><path fill="#F7C716" d="M 390.164062 625.175781 L 301.308594 625.175781 L 301.308594 656.417969 L 449.398438 656.417969 L 449.398438 625.175781 L 390.164062 625.175781"/><path fill="#F7C716" d="M 390.164062 562.675781 L 390.164062 437.671875 L 360.539062 437.671875 L 360.539062 593.917969 L 390.164062 593.917969 L 390.164062 562.675781"/><path fill="#F7C716" d="M 597.488281 250.167969 L 597.488281 281.414062 L 656.722656 281.414062 L 656.722656 250.167969 L 597.488281 250.167969"/><path fill="#F7C716" d="M 64.371094 250.167969 L 64.371094 281.414062 L 93.980469 281.414062 L 93.980469 312.65625 L 123.605469 312.65625 L 123.605469 250.167969 L 64.371094 250.167969"/><path fill="#F7C716" d="M 656.722656 250.167969 L 686.332031 250.167969 L 686.332031 218.914062 L 656.722656 218.914062 L 656.722656 250.167969"/><path fill="#F7C716" d="M 686.332031 93.910156 L 627.097656 93.910156 L 627.097656 125.15625 L 686.332031 125.15625 L 686.332031 218.914062 L 715.957031 218.914062 L 715.957031 93.910156 L 686.332031 93.910156"/><path fill="#F7C716" d="M 64.371094 93.910156 L 34.75 93.910156 L 34.75 218.914062 L 36.035156 218.914062 C 35.320312 218.914062 34.75 219.484375 34.75 220.199219 L 34.75 248.882812 C 34.75 249.585938 35.320312 250.167969 36.035156 250.167969 L 63.085938 250.167969 C 63.800781 250.167969 64.371094 249.585938 64.371094 248.882812 L 64.371094 220.199219 C 64.371094 219.484375 63.800781 218.914062 63.085938 218.914062 L 64.371094 218.914062 L 64.371094 125.15625 L 123.605469 125.15625 L 123.605469 93.910156 L 64.371094 93.910156"/><path fill="#F7C716" d="M 449.398438 31.410156 L 182.839844 31.410156 L 182.839844 218.914062 L 153.214844 218.914062 L 153.214844 312.65625 L 271.695312 312.65625 L 271.695312 281.414062 L 360.539062 281.414062 L 360.539062 250.167969 L 390.164062 250.167969 L 390.164062 218.914062 L 419.773438 218.914062 L 419.773438 187.667969 L 449.398438 187.667969 L 449.398438 156.410156 L 479.007812 156.410156 L 479.007812 125.15625 L 508.632812 125.15625 L 508.632812 31.410156 L 449.398438 31.410156"/><path fill="#FFF" d="M 153.214844 62.652344 L 182.839844 62.652344 L 182.839844 31.410156 L 153.214844 31.410156 L 153.214844 62.652344"/><path fill="#231F20" d="M 390.164062 468.917969 L 390.164062 593.917969 L 360.539062 593.917969 L 360.539062 437.671875 L 390.164062 437.671875 Z M 449.398438 625.175781 L 449.398438 656.417969 L 301.308594 656.417969 L 301.308594 625.175781 Z M 479.007812 718.917969 L 271.695312 718.917969 L 271.695312 687.675781 L 479.007812 687.675781 Z M 419.773438 375.171875 L 271.695312 375.171875 L 271.695312 343.914062 L 212.460938 343.914062 L 212.460938 375.171875 L 242.074219 375.171875 L 242.074219 406.414062 L 330.929688 406.414062 L 330.929688 593.917969 L 271.695312 593.917969 L 271.695312 656.417969 L 242.074219 656.417969 L 242.074219 750.175781 L 508.632812 750.175781 L 508.632812 656.417969 L 479.007812 656.417969 L 479.007812 593.917969 L 419.773438 593.917969 L 419.773438 406.414062 L 479.007812 406.414062 L 479.007812 375.171875 L 419.773438 375.171875"/><path fill="#231F20" d="M 479.007812 343.914062 L 479.007812 375.171875 L 538.253906 375.171875 L 538.253906 343.914062 L 479.007812 343.914062"/><path fill="#231F20" d="M 538.253906 343.914062 L 567.867188 343.914062 L 567.867188 312.65625 L 538.253906 312.65625 L 538.253906 343.914062"/><path fill="#231F20" d="M 597.488281 281.414062 L 597.488281 250.167969 L 567.867188 250.167969 L 567.867188 312.65625 L 656.722656 312.65625 L 656.722656 281.414062 L 597.488281 281.414062"/><path fill="#231F20" d="M 64.371094 281.414062 L 64.371094 312.65625 L 93.980469 312.65625 L 93.980469 281.414062 L 64.371094 281.414062"/><path fill="#231F20" d="M 656.722656 281.414062 L 686.332031 281.414062 L 686.332031 250.167969 L 656.722656 250.167969 L 656.722656 281.414062"/><path fill="#231F20" d="M 34.75 250.167969 L 34.75 281.414062 L 64.371094 281.414062 L 64.371094 250.167969 L 34.75 250.167969"/><path fill="#231F20" d="M 686.332031 250.167969 L 715.957031 250.167969 L 715.957031 218.914062 L 686.332031 218.914062 L 686.332031 250.167969"/><g clip-path="url(#a)"><path fill="#231F20" d="M 123.605469 187.667969 L 123.605469 218.914062 L 93.980469 218.914062 L 93.980469 156.410156 L 123.605469 156.410156 Z M 715.957031 62.652344 L 627.097656 62.652344 L 627.097656 0.152344 L 123.605469 0.152344 L 123.605469 62.652344 L 5.136719 62.652344 L 5.136719 218.914062 L 6.421875 218.914062 C 5.710938 218.914062 5.136719 219.484375 5.136719 220.199219 L 5.136719 248.882812 C 5.136719 249.585938 5.710938 250.167969 6.421875 250.167969 L 33.476562 250.167969 C 34.175781 250.167969 34.75 249.585938 34.75 248.882812 L 34.75 220.199219 C 34.75 219.484375 34.175781 218.914062 33.476562 218.914062 L 34.75 218.914062 L 34.75 93.910156 L 123.605469 93.910156 L 123.605469 125.15625 L 64.371094 125.15625 L 64.371094 250.167969 L 123.605469 250.167969 L 123.605469 312.65625 L 93.980469 312.65625 L 93.980469 343.914062 L 212.460938 343.914062 L 212.460938 312.65625 L 153.214844 312.65625 L 153.214844 31.410156 L 597.488281 31.410156 L 597.488281 250.167969 L 656.722656 250.167969 L 656.722656 218.914062 L 627.097656 218.914062 L 627.097656 156.410156 L 656.722656 156.410156 L 656.722656 218.914062 L 686.332031 218.914062 L 686.332031 125.15625 L 627.097656 125.15625 L 627.097656 93.910156 L 715.957031 93.910156 L 715.957031 218.914062 L 745.566406 218.914062 L 745.566406 62.652344 L 715.957031 62.652344"/></g></svg>