<svg xmlns="http://www.w3.org/2000/svg" width="750" viewBox="0 0 750 750" height="750" version="1.0"><defs><clipPath id="a"><path d="M 0 120.683594 L 654 120.683594 L 654 267 L 0 267 Z M 0 120.683594"/></clipPath><clipPath id="b"><path d="M 96 532 L 604.941406 532 L 604.941406 629.074219 L 96 629.074219 Z M 96 532"/></clipPath></defs><path fill="#808383" d="M 363.160156 435.453125 L 363.136719 411.238281 L 387.359375 411.210938 L 387.382812 435.453125 L 363.160156 435.453125"/><path fill="#808383" d="M 387.359375 411.238281 L 387.359375 435.425781 L 363.160156 435.425781 L 363.160156 411.238281 L 387.359375 411.238281"/><path fill="#808383" d="M 290.515625 435.453125 L 290.488281 411.238281 L 314.734375 411.210938 L 314.761719 435.453125 L 290.515625 435.453125"/><path fill="#808383" d="M 314.734375 411.238281 L 314.734375 435.425781 L 290.515625 435.425781 L 290.515625 411.238281 L 314.734375 411.238281"/><path fill="#808383" d="M 363.160156 435.410156 L 363.1875 459.652344 L 387.367188 459.625 L 387.339844 435.425781 L 411.5625 435.410156 L 411.539062 411.238281 L 387.367188 411.253906 L 387.339844 387.011719 L 338.941406 387.039062 L 338.957031 411.238281 L 314.734375 411.253906 L 314.71875 387.011719 L 290.515625 387.039062 L 290.53125 411.238281 L 266.308594 411.253906 L 266.335938 435.425781 L 290.515625 435.410156 L 290.53125 459.652344 L 338.941406 459.625 L 338.914062 435.410156 Z M 435.785156 483.859375 L 435.757812 459.652344 L 411.5625 459.667969 L 411.578125 483.839844 L 266.308594 483.859375 L 266.292969 459.652344 L 242.113281 459.667969 L 242.097656 387.011719 L 266.308594 386.996094 L 266.292969 362.824219 L 411.5625 362.808594 L 411.578125 387.011719 L 435.785156 386.996094 L 435.808594 435.425781 L 484.210938 435.410156 L 484.226562 459.652344 L 459.980469 459.667969 L 460.003906 483.859375 L 435.785156 483.859375"/><path fill="#808383" d="M 411.5625 435.425781 L 387.367188 435.425781 L 387.367188 459.652344 L 363.160156 459.652344 L 363.160156 435.425781 L 338.941406 435.425781 L 338.941406 459.652344 L 290.515625 459.652344 L 290.515625 435.425781 L 266.308594 435.425781 L 266.308594 411.238281 L 290.515625 411.238281 L 290.515625 387.011719 L 314.734375 387.011719 L 314.734375 411.238281 L 338.941406 411.238281 L 338.941406 387.011719 L 387.367188 387.011719 L 387.367188 411.238281 L 411.5625 411.238281 Z M 435.785156 435.425781 L 435.785156 387.011719 L 411.5625 387.011719 L 411.5625 362.824219 L 266.308594 362.824219 L 266.308594 387.011719 L 242.113281 387.011719 L 242.113281 459.652344 L 266.308594 459.652344 L 266.308594 483.839844 L 411.5625 483.839844 L 411.5625 459.652344 L 435.785156 459.652344 L 435.785156 483.839844 L 459.980469 483.839844 L 459.980469 459.652344 L 484.210938 459.652344 L 484.210938 435.425781 L 435.785156 435.425781"/><path fill="#808383" d="M 266.308594 290.234375 L 266.292969 266.003906 L 290.515625 265.980469 L 290.53125 290.234375 L 266.308594 290.234375"/><path fill="#808383" d="M 290.515625 266.003906 L 290.515625 290.21875 L 266.308594 290.21875 L 266.308594 266.003906 L 290.515625 266.003906"/><path fill="#808383" d="M 387.359375 290.234375 L 387.339844 266.003906 L 411.5625 265.980469 L 411.578125 290.234375 L 387.359375 290.234375"/><path fill="#808383" d="M 411.5625 266.003906 L 411.5625 290.21875 L 387.359375 290.21875 L 387.359375 266.003906 L 411.5625 266.003906"/><path fill="#808383" d="M 411.5625 217.632812 L 411.539062 193.402344 L 435.785156 193.375 L 435.808594 217.632812 L 411.5625 217.632812"/><path fill="#808383" d="M 435.785156 193.402344 L 435.785156 217.617188 L 411.5625 217.617188 L 411.5625 193.402344 L 435.785156 193.402344"/><path fill="#808383" d="M 242.113281 217.632812 L 242.097656 193.402344 L 266.308594 193.375 L 266.335938 217.632812 L 242.113281 217.632812"/><path fill="#808383" d="M 266.308594 193.402344 L 266.308594 217.617188 L 242.113281 217.617188 L 242.113281 193.402344 L 266.308594 193.402344"/><path fill="#51575B" d="M 242.113281 290.234375 L 242.097656 217.617188 L 266.308594 217.589844 L 266.335938 241.804688 L 290.515625 241.789062 L 290.53125 266.003906 L 266.308594 266.019531 L 266.335938 290.234375 L 242.113281 290.234375"/><path fill="#51575B" d="M 266.308594 290.21875 L 242.113281 290.21875 L 242.113281 217.617188 L 266.308594 217.617188 L 266.308594 241.804688 L 290.515625 241.804688 L 290.515625 266.003906 L 266.308594 266.003906 L 266.308594 290.21875"/><path fill="#51575B" d="M 242.113281 483.859375 L 242.097656 459.652344 L 266.308594 459.625 L 266.335938 483.859375 L 242.113281 483.859375"/><path fill="#51575B" d="M 266.308594 459.652344 L 266.308594 483.839844 L 242.113281 483.839844 L 242.113281 459.652344 L 266.308594 459.652344"/><path fill="#51575B" d="M 266.308594 508.054688 L 266.292969 483.839844 L 411.5625 483.816406 L 411.578125 508.054688 L 266.308594 508.054688"/><path fill="#51575B" d="M 411.5625 483.839844 L 411.5625 508.03125 L 266.308594 508.03125 L 266.308594 483.839844 L 411.5625 483.839844"/><path fill="#51575B" d="M 411.5625 290.234375 L 411.539062 266.003906 L 387.367188 266.019531 L 387.339844 241.804688 L 411.5625 241.789062 L 411.539062 217.617188 L 435.785156 217.589844 L 435.808594 290.234375 L 411.5625 290.234375"/><path fill="#51575B" d="M 411.5625 266.003906 L 387.367188 266.003906 L 387.367188 241.804688 L 411.5625 241.804688 L 411.5625 217.617188 L 435.785156 217.617188 L 435.785156 290.21875 L 411.5625 290.21875 L 411.5625 266.003906"/><path fill="#51575B" d="M 314.734375 435.453125 L 314.71875 411.238281 L 363.160156 411.210938 L 363.1875 435.453125 L 314.734375 435.453125"/><path fill="#51575B" d="M 314.734375 435.425781 L 314.734375 411.238281 L 363.160156 411.238281 L 363.160156 435.425781 L 314.734375 435.425781"/><path fill="#51575B" d="M 435.785156 508.054688 L 435.757812 483.839844 L 459.980469 483.816406 L 460.003906 508.054688 L 435.785156 508.054688"/><path fill="#51575B" d="M 435.785156 483.839844 L 459.980469 483.839844 L 459.980469 508.03125 L 435.785156 508.03125 L 435.785156 483.839844"/><path fill="#51575B" d="M 411.5625 483.859375 L 411.539062 459.652344 L 435.785156 459.625 L 435.808594 483.859375 L 411.5625 483.859375"/><path fill="#51575B" d="M 435.785156 459.652344 L 435.785156 483.839844 L 411.5625 483.839844 L 411.5625 459.652344 L 435.785156 459.652344"/><path fill="#51575B" d="M 459.980469 483.859375 L 459.964844 459.652344 L 484.210938 459.625 L 484.226562 483.859375 L 459.980469 483.859375"/><path fill="#51575B" d="M 484.210938 459.652344 L 484.210938 483.839844 L 459.980469 483.839844 L 459.980469 459.652344 L 484.210938 459.652344"/><path fill="#88391C" d="M 290.515625 290.234375 L 290.488281 266.003906 L 387.367188 265.980469 L 387.382812 290.234375 L 290.515625 290.234375"/><path fill="#88391C" d="M 290.515625 290.21875 L 290.515625 266.003906 L 387.367188 266.003906 L 387.367188 290.21875 L 290.515625 290.21875"/><path fill="#88391C" d="M 242.113281 362.847656 L 242.097656 338.632812 L 435.785156 338.609375 L 435.808594 362.847656 L 242.113281 362.847656"/><path fill="#88391C" d="M 435.785156 338.632812 L 435.785156 362.824219 L 242.113281 362.824219 L 242.113281 338.632812 L 435.785156 338.632812"/><path fill="#88391C" d="M 121.066406 556.46875 L 121.046875 532.253906 L 96.84375 532.269531 L 96.828125 483.839844 L 121.066406 483.816406 L 121.046875 459.652344 L 145.269531 459.625 L 145.246094 435.425781 L 169.464844 435.410156 L 169.449219 411.238281 L 193.6875 411.210938 L 193.710938 435.425781 L 242.113281 435.410156 L 242.136719 483.839844 L 266.308594 483.816406 L 266.335938 508.03125 L 411.5625 508.015625 L 411.539062 483.839844 L 435.785156 483.816406 L 435.808594 508.03125 L 459.980469 508.015625 L 459.964844 483.839844 L 484.210938 483.816406 L 484.183594 411.238281 L 508.40625 411.210938 L 508.429688 435.425781 L 532.601562 435.410156 L 532.628906 459.652344 L 556.832031 459.625 L 556.855469 483.839844 L 581.027344 483.816406 L 581.054688 532.253906 L 556.832031 532.269531 L 556.855469 556.46875 L 121.066406 556.46875"/><path fill="#88391C" d="M 556.832031 483.839844 L 581.027344 483.839844 L 581.027344 532.253906 L 556.832031 532.253906 L 556.832031 556.445312 L 121.066406 556.445312 L 121.066406 532.253906 L 96.84375 532.253906 L 96.84375 483.839844 L 121.066406 483.839844 L 121.066406 459.652344 L 145.269531 459.652344 L 145.269531 435.425781 L 169.464844 435.425781 L 169.464844 411.238281 L 193.6875 411.238281 L 193.6875 435.425781 L 242.113281 435.425781 L 242.113281 483.839844 L 266.308594 483.839844 L 266.308594 508.03125 L 411.5625 508.03125 L 411.5625 483.839844 L 435.785156 483.839844 L 435.785156 508.03125 L 459.980469 508.03125 L 459.980469 483.839844 L 484.210938 483.839844 L 484.210938 411.238281 L 508.40625 411.238281 L 508.40625 435.425781 L 532.601562 435.425781 L 532.601562 459.652344 L 556.832031 459.652344 L 556.832031 483.839844"/><path fill="#88391C" d="M 48.417969 338.648438 L 48.402344 314.410156 L 0.0234375 314.433594 L 0 241.804688 L 24.222656 241.789062 L 24.238281 266.003906 L 96.84375 265.980469 L 96.820312 241.804688 L 169.464844 241.789062 L 169.441406 217.617188 L 145.269531 217.632812 L 145.246094 193.402344 L 193.6875 193.375 L 193.671875 169.203125 L 459.980469 169.183594 L 460.003906 193.402344 L 508.40625 193.375 L 508.429688 217.617188 L 484.210938 217.632812 L 484.226562 241.804688 L 435.785156 241.832031 L 435.757812 193.402344 L 411.5625 193.417969 L 411.578125 241.804688 L 266.308594 241.832031 L 266.292969 193.402344 L 242.113281 193.417969 L 242.136719 241.804688 L 193.6875 241.832031 L 193.710938 290.21875 L 169.464844 290.234375 L 169.492188 314.410156 L 121.066406 314.433594 L 121.089844 338.648438 L 48.417969 338.648438"/><path fill="#88391C" d="M 484.210938 217.617188 L 484.210938 241.804688 L 435.785156 241.804688 L 435.785156 193.402344 L 411.5625 193.402344 L 411.5625 241.804688 L 266.308594 241.804688 L 266.308594 193.402344 L 242.113281 193.402344 L 242.113281 241.804688 L 193.6875 241.804688 L 193.6875 290.21875 L 169.464844 290.21875 L 169.464844 314.410156 L 121.066406 314.410156 L 121.066406 338.632812 L 48.417969 338.632812 L 48.417969 314.410156 L 0.0234375 314.410156 L 0.0234375 241.804688 L 24.222656 241.804688 L 24.222656 266.003906 L 96.84375 266.003906 L 96.84375 241.804688 L 169.464844 241.804688 L 169.464844 217.617188 L 145.269531 217.617188 L 145.269531 193.402344 L 193.6875 193.402344 L 193.6875 169.203125 L 459.980469 169.203125 L 459.980469 193.402344 L 508.40625 193.402344 L 508.40625 217.617188 L 484.210938 217.617188"/><path fill="#88391C" d="M 556.832031 338.648438 L 556.808594 314.410156 L 508.40625 314.433594 L 508.390625 290.21875 L 484.210938 290.234375 L 484.183594 241.804688 L 556.832031 241.789062 L 556.855469 266.003906 L 629.453125 265.980469 L 629.429688 241.804688 L 653.652344 241.789062 L 653.675781 314.410156 L 629.453125 314.433594 L 629.480469 338.648438 L 556.832031 338.648438"/><path fill="#88391C" d="M 653.652344 241.804688 L 653.652344 314.410156 L 629.453125 314.410156 L 629.453125 338.632812 L 556.832031 338.632812 L 556.832031 314.410156 L 508.40625 314.410156 L 508.40625 290.21875 L 484.210938 290.21875 L 484.210938 241.804688 L 556.832031 241.804688 L 556.832031 266.003906 L 629.453125 266.003906 L 629.453125 241.804688 L 653.652344 241.804688"/><path fill="#BA6832" d="M 290.515625 411.253906 L 290.488281 387.011719 L 314.734375 386.996094 L 314.761719 411.253906 L 290.515625 411.253906"/><path fill="#BA6832" d="M 314.734375 411.238281 L 290.515625 411.238281 L 290.515625 387.011719 L 314.734375 387.011719 L 314.734375 411.238281"/><path fill="#BA6832" d="M 290.515625 459.667969 L 290.488281 435.425781 L 338.941406 435.410156 L 338.957031 459.667969 L 290.515625 459.667969"/><path fill="#BA6832" d="M 338.941406 435.425781 L 338.941406 459.652344 L 290.515625 459.652344 L 290.515625 435.425781 L 338.941406 435.425781"/><path fill="#BA6832" d="M 193.6875 435.453125 L 193.671875 387.011719 L 217.890625 386.996094 L 217.867188 362.824219 L 266.308594 362.808594 L 266.335938 387.011719 L 242.113281 387.039062 L 242.136719 435.453125 L 193.6875 435.453125"/><path fill="#BA6832" d="M 266.308594 387.011719 L 242.113281 387.011719 L 242.113281 435.425781 L 193.6875 435.425781 L 193.6875 387.011719 L 217.890625 387.011719 L 217.890625 362.824219 L 266.308594 362.824219 L 266.308594 387.011719"/><path fill="#BA6832" d="M 266.308594 435.453125 L 266.292969 411.238281 L 290.515625 411.210938 L 290.53125 435.453125 L 266.308594 435.453125"/><path fill="#BA6832" d="M 290.515625 411.238281 L 290.515625 435.425781 L 266.308594 435.425781 L 266.308594 411.238281 L 290.515625 411.238281"/><path fill="#BA6832" d="M 387.367188 435.453125 L 387.339844 411.238281 L 411.5625 411.210938 L 411.578125 435.453125 L 387.367188 435.453125"/><path fill="#BA6832" d="M 387.367188 411.238281 L 411.5625 411.238281 L 411.5625 435.425781 L 387.367188 435.425781 L 387.367188 411.238281"/><g clip-path="url(#a)" fill="#BA6832"><path d="M 556.832031 266.019531 L 556.808594 241.804688 L 484.210938 241.832031 L 484.183594 217.617188 L 508.40625 217.589844 L 508.390625 193.402344 L 459.980469 193.417969 L 459.964844 169.203125 L 193.6875 169.226562 L 193.710938 193.402344 L 145.269531 193.417969 L 145.285156 217.617188 L 169.464844 217.589844 L 169.492188 241.804688 L 96.84375 241.832031 L 96.859375 266.003906 L 24.222656 266.019531 L 24.195312 241.804688 L 0.0234375 241.832031 L 0 217.617188 L 24.222656 217.589844 L 24.195312 193.402344 L 48.417969 193.375 L 48.402344 169.203125 L 121.066406 169.183594 L 121.046875 144.988281 L 217.890625 144.960938 L 217.867188 120.796875 L 459.980469 120.773438 L 460.003906 144.988281 L 556.832031 144.960938 L 556.855469 169.203125 L 605.257812 169.183594 L 605.273438 193.402344 L 629.453125 193.375 L 629.480469 217.617188 L 653.652344 217.589844 L 653.675781 241.804688 L 629.453125 241.832031 L 629.480469 266.019531 L 556.832031 266.019531"/><path d="M 653.652344 217.617188 L 653.652344 241.804688 L 629.453125 241.804688 L 629.453125 266.003906 L 556.832031 266.003906 L 556.832031 241.804688 L 484.210938 241.804688 L 484.210938 217.617188 L 508.40625 217.617188 L 508.40625 193.402344 L 459.980469 193.402344 L 459.980469 169.203125 L 193.6875 169.203125 L 193.6875 193.402344 L 145.269531 193.402344 L 145.269531 217.617188 L 169.464844 217.617188 L 169.464844 241.804688 L 96.84375 241.804688 L 96.84375 266.003906 L 24.222656 266.003906 L 24.222656 241.804688 L 0.0234375 241.804688 L 0.0234375 217.617188 L 24.222656 217.617188 L 24.222656 193.402344 L 48.417969 193.402344 L 48.417969 169.203125 L 121.066406 169.203125 L 121.066406 144.988281 L 217.890625 144.988281 L 217.890625 120.796875 L 459.980469 120.796875 L 459.980469 144.988281 L 556.832031 144.988281 L 556.832031 169.203125 L 605.257812 169.203125 L 605.257812 193.402344 L 629.453125 193.402344 L 629.453125 217.617188 L 653.652344 217.617188"/></g><path fill="#BA6832" d="M 338.941406 411.253906 L 338.914062 387.011719 L 387.367188 386.996094 L 387.382812 411.253906 L 338.941406 411.253906"/><path fill="#BA6832" d="M 387.367188 387.011719 L 387.367188 411.238281 L 338.941406 411.238281 L 338.941406 387.011719 L 387.367188 387.011719"/><path fill="#BA6832" d="M 435.785156 435.453125 L 435.757812 387.011719 L 411.5625 387.039062 L 411.539062 362.824219 L 459.980469 362.808594 L 460.003906 387.011719 L 484.210938 386.996094 L 484.226562 435.453125 L 435.785156 435.453125"/><path fill="#BA6832" d="M 459.980469 387.011719 L 484.210938 387.011719 L 484.210938 435.425781 L 435.785156 435.425781 L 435.785156 387.011719 L 411.5625 387.011719 L 411.5625 362.824219 L 459.980469 362.824219 L 459.980469 387.011719"/><path fill="#BA6832" d="M 363.160156 459.667969 L 363.136719 435.425781 L 387.367188 435.410156 L 387.382812 459.667969 L 363.160156 459.667969"/><path fill="#BA6832" d="M 363.160156 435.425781 L 387.367188 435.425781 L 387.367188 459.652344 L 363.160156 459.652344 L 363.160156 435.425781"/><path fill="#542117" d="M 290.515625 338.648438 L 290.488281 314.410156 L 266.308594 314.433594 L 266.292969 290.21875 L 411.5625 290.195312 L 411.578125 314.410156 L 387.367188 314.433594 L 387.382812 338.648438 L 290.515625 338.648438"/><path fill="#542117" d="M 290.515625 314.410156 L 266.308594 314.410156 L 266.308594 290.21875 L 411.5625 290.21875 L 411.5625 314.410156 L 387.367188 314.410156 L 387.367188 338.632812 L 290.515625 338.632812 L 290.515625 314.410156"/><path fill="#542117" d="M 701.609375 583.847656 L 701.585938 559.605469 L 725.808594 559.582031 L 725.832031 583.847656 L 701.609375 583.847656"/><path fill="#542117" d="M 701.609375 559.605469 L 725.808594 559.605469 L 725.808594 583.820312 L 701.609375 583.820312 L 701.609375 559.605469"/><path fill="#542117" d="M 677.390625 293.398438 L 653.335938 293.371094 L 653.308594 269.140625 L 677.554688 269.117188 L 701.609375 269.140625 L 701.628906 293.398438 L 677.390625 293.398438"/><path fill="#542117" d="M 701.609375 269.164062 L 701.609375 293.378906 L 677.390625 293.378906 L 677.390625 293.355469 L 653.335938 293.355469 L 653.335938 269.140625 L 677.554688 269.140625 L 677.554688 269.164062 L 701.609375 269.164062"/><path fill="#542117" d="M 604.757812 608.035156 L 604.742188 583.820312 L 701.609375 583.804688 L 701.628906 608.035156 L 604.757812 608.035156"/><path fill="#542117" d="M 701.609375 583.820312 L 701.609375 608.019531 L 604.757812 608.019531 L 604.757812 583.820312 L 701.609375 583.820312"/><path fill="#542117" d="M 725.808594 559.621094 L 725.78125 341.792969 L 750.011719 341.769531 L 750.027344 559.621094 L 725.808594 559.621094"/><path fill="#542117" d="M 750.011719 341.792969 L 750.011719 559.605469 L 725.808594 559.605469 L 725.808594 341.792969 L 750.011719 341.792969"/><path fill="#542117" d="M 701.609375 341.8125 L 701.585938 293.378906 L 725.808594 293.355469 L 725.832031 341.8125 L 701.609375 341.8125"/><path fill="#542117" d="M 725.808594 341.792969 L 701.609375 341.792969 L 701.609375 293.378906 L 725.808594 293.378906 L 725.808594 341.792969"/><g clip-path="url(#b)" fill="#542117"><path d="M 508.40625 629.074219 L 508.390625 604.859375 L 484.210938 604.875 L 484.226562 629.046875 L 435.785156 629.074219 L 435.757812 604.859375 L 242.113281 604.875 L 242.136719 629.046875 L 193.6875 629.074219 L 193.671875 604.859375 L 169.464844 604.875 L 169.492188 629.046875 L 121.066406 629.074219 L 121.046875 604.859375 L 96.84375 604.875 L 96.828125 532.253906 L 121.066406 532.230469 L 121.089844 556.445312 L 556.832031 556.429688 L 556.808594 532.253906 L 581.027344 532.230469 L 581.054688 559.605469 L 604.757812 559.582031 L 604.785156 583.820312 L 581.027344 583.847656 L 581.054688 604.859375 L 556.832031 604.875 L 556.855469 629.074219 L 508.40625 629.074219"/><path d="M 604.757812 559.605469 L 604.757812 583.820312 L 581.027344 583.820312 L 581.027344 604.859375 L 556.832031 604.859375 L 556.832031 629.046875 L 508.40625 629.046875 L 508.40625 604.859375 L 484.210938 604.859375 L 484.210938 629.046875 L 435.785156 629.046875 L 435.785156 604.859375 L 242.113281 604.859375 L 242.113281 629.046875 L 193.6875 629.046875 L 193.6875 604.859375 L 169.464844 604.859375 L 169.464844 629.046875 L 121.066406 629.046875 L 121.066406 604.859375 L 96.84375 604.859375 L 96.84375 532.253906 L 121.066406 532.253906 L 121.066406 556.445312 L 556.832031 556.445312 L 556.832031 532.253906 L 581.027344 532.253906 L 581.027344 559.605469 L 604.757812 559.605469"/></g></svg>